<mxfile host="app.diagrams.net" modified="2023-07-20T14:02:18.467Z" agent="Mozilla/5.0 (Macintosh; Intel Mac OS X 10_15_7) AppleWebKit/537.36 (KHTML, like Gecko) Chrome/114.0.0.0 Safari/537.36" etag="GPlNSo6D0HLJqo9QVww3" version="21.5.2" type="github">
  <diagram name="第 1 页" id="Tcv02Qek8hvbbsf-ltfc">
    <mxGraphModel dx="2795" dy="-1737" grid="0" gridSize="10" guides="1" tooltips="1" connect="1" arrows="1" fold="1" page="0" pageScale="1" pageWidth="2339" pageHeight="3300" math="0" shadow="0">
      <root>
        <mxCell id="0" />
        <mxCell id="1" parent="0" />
        <mxCell id="enEflHNbiE4KMbk-d4w2-67" value="" style="rounded=0;whiteSpace=wrap;html=1;fillColor=#dae8fc;gradientDirection=north;strokeColor=#000000;" vertex="1" parent="1">
          <mxGeometry x="-985" y="2975" width="10" height="10" as="geometry" />
        </mxCell>
        <mxCell id="enEflHNbiE4KMbk-d4w2-68" value="" style="rounded=0;whiteSpace=wrap;html=1;fillColor=#f5f5f5;gradientDirection=north;strokeColor=#000000;fontColor=#333333;" vertex="1" parent="1">
          <mxGeometry x="-985" y="2985" width="10" height="10" as="geometry" />
        </mxCell>
        <mxCell id="enEflHNbiE4KMbk-d4w2-69" value="" style="rounded=0;whiteSpace=wrap;html=1;fillColor=#fff2cc;gradientDirection=north;strokeColor=#000000;" vertex="1" parent="1">
          <mxGeometry x="-985" y="2995" width="10" height="10" as="geometry" />
        </mxCell>
        <mxCell id="enEflHNbiE4KMbk-d4w2-70" value="" style="rounded=0;whiteSpace=wrap;html=1;fillColor=#D9D9D9;gradientColor=none;gradientDirection=north;strokeColor=#000000;" vertex="1" parent="1">
          <mxGeometry x="-985" y="3005" width="10" height="10" as="geometry" />
        </mxCell>
        <mxCell id="enEflHNbiE4KMbk-d4w2-71" value="" style="rounded=0;whiteSpace=wrap;html=1;fillColor=#666666;gradientColor=none;gradientDirection=north;strokeColor=#000000;" vertex="1" parent="1">
          <mxGeometry x="-965" y="2975" width="10" height="10" as="geometry" />
        </mxCell>
        <mxCell id="enEflHNbiE4KMbk-d4w2-72" value="" style="rounded=0;whiteSpace=wrap;html=1;fillColor=#CCCCFF;gradientColor=none;gradientDirection=north;strokeColor=#000000;" vertex="1" parent="1">
          <mxGeometry x="-965" y="2985" width="10" height="10" as="geometry" />
        </mxCell>
        <mxCell id="enEflHNbiE4KMbk-d4w2-73" value="" style="rounded=0;whiteSpace=wrap;html=1;fillColor=#f5f5f5;gradientDirection=north;fontColor=#333333;strokeColor=#000000;" vertex="1" parent="1">
          <mxGeometry x="-965" y="2995" width="10" height="10" as="geometry" />
        </mxCell>
        <mxCell id="enEflHNbiE4KMbk-d4w2-74" value="" style="rounded=0;whiteSpace=wrap;html=1;fillColor=#D9D9D9;gradientColor=none;gradientDirection=north;strokeColor=#000000;" vertex="1" parent="1">
          <mxGeometry x="-965" y="3005" width="10" height="10" as="geometry" />
        </mxCell>
        <mxCell id="enEflHNbiE4KMbk-d4w2-75" style="edgeStyle=orthogonalEdgeStyle;rounded=0;orthogonalLoop=1;jettySize=auto;html=1;exitX=0.5;exitY=0;exitDx=0;exitDy=0;dashed=1;" edge="1" parent="1" source="enEflHNbiE4KMbk-d4w2-76">
          <mxGeometry relative="1" as="geometry">
            <mxPoint x="-945.6304347826085" y="2908.826086956522" as="targetPoint" />
          </mxGeometry>
        </mxCell>
        <mxCell id="enEflHNbiE4KMbk-d4w2-76" value="concat" style="rounded=1;whiteSpace=wrap;html=1;fillColor=#FFFFFF;gradientColor=none;gradientDirection=north;" vertex="1" parent="1">
          <mxGeometry x="-989.5" y="2937" width="84" height="20" as="geometry" />
        </mxCell>
        <mxCell id="enEflHNbiE4KMbk-d4w2-77" value="" style="shape=curlyBracket;whiteSpace=wrap;html=1;rounded=1;flipH=1;fillColor=#FFFFFF;gradientColor=none;gradientDirection=north;rotation=-90;" vertex="1" parent="1">
          <mxGeometry x="-957.25" y="2901.75" width="20" height="128.5" as="geometry" />
        </mxCell>
        <mxCell id="enEflHNbiE4KMbk-d4w2-78" value="" style="rounded=0;whiteSpace=wrap;html=1;fillColor=#f5f5f5;gradientDirection=north;strokeColor=#000000;fontColor=#333333;" vertex="1" parent="1">
          <mxGeometry x="-1005" y="2975" width="10" height="10" as="geometry" />
        </mxCell>
        <mxCell id="enEflHNbiE4KMbk-d4w2-79" value="" style="rounded=0;whiteSpace=wrap;html=1;fillColor=#D9D9D9;gradientColor=none;gradientDirection=north;strokeColor=#000000;" vertex="1" parent="1">
          <mxGeometry x="-1005" y="2985" width="10" height="10" as="geometry" />
        </mxCell>
        <mxCell id="enEflHNbiE4KMbk-d4w2-80" value="" style="rounded=0;whiteSpace=wrap;html=1;fillColor=#4D4D4D;gradientColor=none;gradientDirection=north;strokeColor=#000000;" vertex="1" parent="1">
          <mxGeometry x="-1005" y="2995" width="10" height="10" as="geometry" />
        </mxCell>
        <mxCell id="enEflHNbiE4KMbk-d4w2-81" value="" style="rounded=0;whiteSpace=wrap;html=1;fillColor=#D9D9D9;gradientColor=none;gradientDirection=north;strokeColor=#000000;" vertex="1" parent="1">
          <mxGeometry x="-1005" y="3005" width="10" height="10" as="geometry" />
        </mxCell>
        <mxCell id="enEflHNbiE4KMbk-d4w2-82" value="" style="ellipse;whiteSpace=wrap;html=1;aspect=fixed;" vertex="1" parent="1">
          <mxGeometry x="-1007" y="3028" width="14" height="14" as="geometry" />
        </mxCell>
        <mxCell id="enEflHNbiE4KMbk-d4w2-83" value="" style="ellipse;whiteSpace=wrap;html=1;aspect=fixed;" vertex="1" parent="1">
          <mxGeometry x="-987" y="3028" width="14" height="14" as="geometry" />
        </mxCell>
        <mxCell id="enEflHNbiE4KMbk-d4w2-84" style="edgeStyle=orthogonalEdgeStyle;rounded=0;orthogonalLoop=1;jettySize=auto;html=1;exitX=0.5;exitY=0;exitDx=0;exitDy=0;entryX=0.5;entryY=1;entryDx=0;entryDy=0;endSize=3;strokeColor=#000000;" edge="1" parent="1" source="enEflHNbiE4KMbk-d4w2-85" target="enEflHNbiE4KMbk-d4w2-74">
          <mxGeometry relative="1" as="geometry" />
        </mxCell>
        <mxCell id="enEflHNbiE4KMbk-d4w2-85" value="" style="ellipse;whiteSpace=wrap;html=1;aspect=fixed;" vertex="1" parent="1">
          <mxGeometry x="-967" y="3028" width="14" height="14" as="geometry" />
        </mxCell>
        <mxCell id="enEflHNbiE4KMbk-d4w2-86" style="edgeStyle=orthogonalEdgeStyle;rounded=0;orthogonalLoop=1;jettySize=auto;html=1;exitX=0.5;exitY=0;exitDx=0;exitDy=0;entryX=0.5;entryY=1;entryDx=0;entryDy=0;endSize=3;strokeColor=#000000;" edge="1" parent="1">
          <mxGeometry relative="1" as="geometry">
            <mxPoint x="-980" y="3028" as="sourcePoint" />
            <mxPoint x="-980" y="3015" as="targetPoint" />
          </mxGeometry>
        </mxCell>
        <mxCell id="enEflHNbiE4KMbk-d4w2-87" style="edgeStyle=orthogonalEdgeStyle;rounded=0;orthogonalLoop=1;jettySize=auto;html=1;exitX=0.5;exitY=0;exitDx=0;exitDy=0;entryX=0.5;entryY=1;entryDx=0;entryDy=0;endSize=3;strokeColor=#000000;" edge="1" parent="1">
          <mxGeometry relative="1" as="geometry">
            <mxPoint x="-1000" y="3028" as="sourcePoint" />
            <mxPoint x="-1000" y="3015" as="targetPoint" />
          </mxGeometry>
        </mxCell>
        <mxCell id="enEflHNbiE4KMbk-d4w2-88" value="Sequence Features" style="text;html=1;strokeColor=none;fillColor=none;align=center;verticalAlign=middle;whiteSpace=wrap;rounded=0;fontSize=9;" vertex="1" parent="1">
          <mxGeometry x="-996.5" y="3045" width="115" height="30" as="geometry" />
        </mxCell>
        <mxCell id="enEflHNbiE4KMbk-d4w2-89" value="" style="rounded=0;whiteSpace=wrap;html=1;fillColor=#fff2cc;gradientDirection=north;strokeColor=#1A1A1A;" vertex="1" parent="1">
          <mxGeometry x="-1179" y="2705" width="10" height="10" as="geometry" />
        </mxCell>
        <mxCell id="enEflHNbiE4KMbk-d4w2-90" value="" style="rounded=0;whiteSpace=wrap;html=1;fillColor=#fff2cc;gradientDirection=north;strokeColor=#1A1A1A;" vertex="1" parent="1">
          <mxGeometry x="-1169" y="2705" width="10" height="10" as="geometry" />
        </mxCell>
        <mxCell id="enEflHNbiE4KMbk-d4w2-91" value="" style="rounded=0;whiteSpace=wrap;html=1;fillColor=#fff2cc;gradientDirection=north;strokeColor=#1A1A1A;" vertex="1" parent="1">
          <mxGeometry x="-1149" y="2705" width="10" height="10" as="geometry" />
        </mxCell>
        <mxCell id="enEflHNbiE4KMbk-d4w2-92" value="" style="rounded=0;whiteSpace=wrap;html=1;fillColor=#f5f5f5;gradientDirection=north;fontColor=#333333;strokeColor=#1A1A1A;" vertex="1" parent="1">
          <mxGeometry x="-1139" y="2705" width="10" height="10" as="geometry" />
        </mxCell>
        <mxCell id="enEflHNbiE4KMbk-d4w2-93" value="" style="rounded=0;whiteSpace=wrap;html=1;fillColor=#f5f5f5;gradientDirection=north;fontColor=#333333;strokeColor=#1A1A1A;" vertex="1" parent="1">
          <mxGeometry x="-1129" y="2705" width="10" height="10" as="geometry" />
        </mxCell>
        <mxCell id="enEflHNbiE4KMbk-d4w2-94" value="" style="rounded=0;whiteSpace=wrap;html=1;fillColor=#fff2cc;gradientDirection=north;strokeColor=#1A1A1A;" vertex="1" parent="1">
          <mxGeometry x="-1159" y="2705" width="10" height="10" as="geometry" />
        </mxCell>
        <mxCell id="enEflHNbiE4KMbk-d4w2-480" style="edgeStyle=orthogonalEdgeStyle;rounded=0;orthogonalLoop=1;jettySize=auto;html=1;exitX=0.25;exitY=0;exitDx=0;exitDy=0;" edge="1" parent="1" source="enEflHNbiE4KMbk-d4w2-96">
          <mxGeometry relative="1" as="geometry">
            <mxPoint x="-1345" y="2740.3333333333335" as="targetPoint" />
          </mxGeometry>
        </mxCell>
        <mxCell id="enEflHNbiE4KMbk-d4w2-96" value="" style="rounded=1;whiteSpace=wrap;html=1;dashed=1;" vertex="1" parent="1">
          <mxGeometry x="-1373" y="2755" width="111" height="20" as="geometry" />
        </mxCell>
        <mxCell id="enEflHNbiE4KMbk-d4w2-97" value="" style="ellipse;whiteSpace=wrap;html=1;aspect=fixed;fillColor=#fff2cc;strokeColor=#d6b656;" vertex="1" parent="1">
          <mxGeometry x="-1284" y="2760" width="12" height="12" as="geometry" />
        </mxCell>
        <mxCell id="enEflHNbiE4KMbk-d4w2-98" value="" style="ellipse;whiteSpace=wrap;html=1;aspect=fixed;fillColor=#fff2cc;strokeColor=#d6b656;" vertex="1" parent="1">
          <mxGeometry x="-1304" y="2760" width="12" height="12" as="geometry" />
        </mxCell>
        <mxCell id="enEflHNbiE4KMbk-d4w2-99" value="" style="ellipse;whiteSpace=wrap;html=1;aspect=fixed;fillColor=#fff2cc;strokeColor=#d6b656;" vertex="1" parent="1">
          <mxGeometry x="-1324" y="2760" width="12" height="12" as="geometry" />
        </mxCell>
        <mxCell id="enEflHNbiE4KMbk-d4w2-100" value="" style="ellipse;whiteSpace=wrap;html=1;aspect=fixed;fillColor=#fff2cc;strokeColor=#d6b656;" vertex="1" parent="1">
          <mxGeometry x="-1344" y="2760" width="12" height="12" as="geometry" />
        </mxCell>
        <mxCell id="enEflHNbiE4KMbk-d4w2-101" value="" style="ellipse;whiteSpace=wrap;html=1;aspect=fixed;fillColor=#fff2cc;strokeColor=#d6b656;" vertex="1" parent="1">
          <mxGeometry x="-1364" y="2760" width="12" height="12" as="geometry" />
        </mxCell>
        <mxCell id="enEflHNbiE4KMbk-d4w2-102" value="" style="rounded=1;whiteSpace=wrap;html=1;dashed=1;" vertex="1" parent="1">
          <mxGeometry x="-1373" y="2815" width="111" height="20" as="geometry" />
        </mxCell>
        <mxCell id="enEflHNbiE4KMbk-d4w2-103" value="" style="ellipse;whiteSpace=wrap;html=1;aspect=fixed;fillColor=#fff2cc;strokeColor=#d6b656;" vertex="1" parent="1">
          <mxGeometry x="-1284" y="2820" width="12" height="12" as="geometry" />
        </mxCell>
        <mxCell id="enEflHNbiE4KMbk-d4w2-104" value="" style="ellipse;whiteSpace=wrap;html=1;aspect=fixed;fillColor=#fff2cc;strokeColor=#d6b656;" vertex="1" parent="1">
          <mxGeometry x="-1304" y="2820" width="12" height="12" as="geometry" />
        </mxCell>
        <mxCell id="enEflHNbiE4KMbk-d4w2-105" value="" style="ellipse;whiteSpace=wrap;html=1;aspect=fixed;fillColor=#fff2cc;strokeColor=#d6b656;" vertex="1" parent="1">
          <mxGeometry x="-1324" y="2820" width="12" height="12" as="geometry" />
        </mxCell>
        <mxCell id="enEflHNbiE4KMbk-d4w2-106" value="" style="ellipse;whiteSpace=wrap;html=1;aspect=fixed;fillColor=#fff2cc;strokeColor=#d6b656;" vertex="1" parent="1">
          <mxGeometry x="-1344" y="2820" width="12" height="12" as="geometry" />
        </mxCell>
        <mxCell id="enEflHNbiE4KMbk-d4w2-107" value="" style="ellipse;whiteSpace=wrap;html=1;aspect=fixed;fillColor=#fff2cc;strokeColor=#d6b656;" vertex="1" parent="1">
          <mxGeometry x="-1364" y="2820" width="12" height="12" as="geometry" />
        </mxCell>
        <mxCell id="enEflHNbiE4KMbk-d4w2-108" style="edgeStyle=orthogonalEdgeStyle;rounded=0;orthogonalLoop=1;jettySize=auto;html=1;exitX=0.5;exitY=0;exitDx=0;exitDy=0;endSize=1;" edge="1" parent="1">
          <mxGeometry relative="1" as="geometry">
            <mxPoint x="-1317.5" y="2844" as="sourcePoint" />
            <mxPoint x="-1318" y="2836" as="targetPoint" />
            <Array as="points">
              <mxPoint x="-1317" y="2839" />
              <mxPoint x="-1318" y="2839" />
            </Array>
          </mxGeometry>
        </mxCell>
        <mxCell id="enEflHNbiE4KMbk-d4w2-109" value="" style="rounded=1;whiteSpace=wrap;html=1;dashed=1;" vertex="1" parent="1">
          <mxGeometry x="-1373" y="2845" width="111" height="20" as="geometry" />
        </mxCell>
        <mxCell id="enEflHNbiE4KMbk-d4w2-110" value="" style="ellipse;whiteSpace=wrap;html=1;aspect=fixed;fillColor=#fff2cc;strokeColor=#d6b656;" vertex="1" parent="1">
          <mxGeometry x="-1284" y="2850" width="12" height="12" as="geometry" />
        </mxCell>
        <mxCell id="enEflHNbiE4KMbk-d4w2-111" value="" style="ellipse;whiteSpace=wrap;html=1;aspect=fixed;fillColor=#fff2cc;strokeColor=#d6b656;" vertex="1" parent="1">
          <mxGeometry x="-1304" y="2850" width="12" height="12" as="geometry" />
        </mxCell>
        <mxCell id="enEflHNbiE4KMbk-d4w2-112" value="" style="ellipse;whiteSpace=wrap;html=1;aspect=fixed;fillColor=#fff2cc;strokeColor=#d6b656;" vertex="1" parent="1">
          <mxGeometry x="-1324" y="2850" width="12" height="12" as="geometry" />
        </mxCell>
        <mxCell id="enEflHNbiE4KMbk-d4w2-113" value="" style="ellipse;whiteSpace=wrap;html=1;aspect=fixed;fillColor=#fff2cc;strokeColor=#d6b656;" vertex="1" parent="1">
          <mxGeometry x="-1344" y="2850" width="12" height="12" as="geometry" />
        </mxCell>
        <mxCell id="enEflHNbiE4KMbk-d4w2-114" value="" style="ellipse;whiteSpace=wrap;html=1;aspect=fixed;fillColor=#fff2cc;strokeColor=#d6b656;" vertex="1" parent="1">
          <mxGeometry x="-1364" y="2850" width="12" height="12" as="geometry" />
        </mxCell>
        <mxCell id="enEflHNbiE4KMbk-d4w2-116" style="edgeStyle=orthogonalEdgeStyle;rounded=0;orthogonalLoop=1;jettySize=auto;html=1;exitX=0.5;exitY=0;exitDx=0;exitDy=0;endSize=1;" edge="1" parent="1">
          <mxGeometry relative="1" as="geometry">
            <mxPoint x="-1297" y="2812" as="sourcePoint" />
            <mxPoint x="-1297" y="2805" as="targetPoint" />
          </mxGeometry>
        </mxCell>
        <mxCell id="enEflHNbiE4KMbk-d4w2-117" style="edgeStyle=orthogonalEdgeStyle;rounded=0;orthogonalLoop=1;jettySize=auto;html=1;exitX=0.5;exitY=0;exitDx=0;exitDy=0;endSize=1;" edge="1" parent="1">
          <mxGeometry relative="1" as="geometry">
            <mxPoint x="-1297" y="2785" as="sourcePoint" />
            <mxPoint x="-1297" y="2778" as="targetPoint" />
          </mxGeometry>
        </mxCell>
        <mxCell id="enEflHNbiE4KMbk-d4w2-118" value="..." style="text;html=1;strokeColor=none;fillColor=none;align=center;verticalAlign=middle;whiteSpace=wrap;rounded=0;" vertex="1" parent="1">
          <mxGeometry x="-1313.5" y="2785" width="33" height="11" as="geometry" />
        </mxCell>
        <mxCell id="enEflHNbiE4KMbk-d4w2-277" style="edgeStyle=orthogonalEdgeStyle;rounded=0;orthogonalLoop=1;jettySize=auto;html=1;exitX=0.5;exitY=0;exitDx=0;exitDy=0;entryX=0.5;entryY=1;entryDx=0;entryDy=0;dashed=1;" edge="1" parent="1" source="enEflHNbiE4KMbk-d4w2-119" target="enEflHNbiE4KMbk-d4w2-242">
          <mxGeometry relative="1" as="geometry">
            <Array as="points">
              <mxPoint x="-1174" y="2765" />
            </Array>
          </mxGeometry>
        </mxCell>
        <mxCell id="enEflHNbiE4KMbk-d4w2-119" value="" style="rounded=1;whiteSpace=wrap;html=1;dashed=1;" vertex="1" parent="1">
          <mxGeometry x="-1223" y="2765" width="71" height="20" as="geometry" />
        </mxCell>
        <mxCell id="enEflHNbiE4KMbk-d4w2-120" value="" style="ellipse;whiteSpace=wrap;html=1;aspect=fixed;fillColor=#f5f5f5;strokeColor=#666666;fontColor=#333333;" vertex="1" parent="1">
          <mxGeometry x="-1174" y="2770" width="12" height="12" as="geometry" />
        </mxCell>
        <mxCell id="enEflHNbiE4KMbk-d4w2-121" value="" style="ellipse;whiteSpace=wrap;html=1;aspect=fixed;fillColor=#f5f5f5;strokeColor=#666666;fontColor=#333333;" vertex="1" parent="1">
          <mxGeometry x="-1194" y="2770" width="12" height="12" as="geometry" />
        </mxCell>
        <mxCell id="enEflHNbiE4KMbk-d4w2-122" value="" style="ellipse;whiteSpace=wrap;html=1;aspect=fixed;fillColor=#f5f5f5;strokeColor=#666666;fontColor=#333333;" vertex="1" parent="1">
          <mxGeometry x="-1214" y="2770" width="12" height="12" as="geometry" />
        </mxCell>
        <mxCell id="enEflHNbiE4KMbk-d4w2-123" value="" style="rounded=1;whiteSpace=wrap;html=1;dashed=1;" vertex="1" parent="1">
          <mxGeometry x="-1223" y="2825" width="71" height="20" as="geometry" />
        </mxCell>
        <mxCell id="enEflHNbiE4KMbk-d4w2-124" value="" style="ellipse;whiteSpace=wrap;html=1;aspect=fixed;fillColor=#f5f5f5;strokeColor=#666666;fontColor=#333333;" vertex="1" parent="1">
          <mxGeometry x="-1174" y="2830" width="12" height="12" as="geometry" />
        </mxCell>
        <mxCell id="enEflHNbiE4KMbk-d4w2-125" value="" style="ellipse;whiteSpace=wrap;html=1;aspect=fixed;fillColor=#f5f5f5;strokeColor=#666666;fontColor=#333333;" vertex="1" parent="1">
          <mxGeometry x="-1194" y="2830" width="12" height="12" as="geometry" />
        </mxCell>
        <mxCell id="enEflHNbiE4KMbk-d4w2-126" value="" style="ellipse;whiteSpace=wrap;html=1;aspect=fixed;fillColor=#f5f5f5;strokeColor=#666666;fontColor=#333333;" vertex="1" parent="1">
          <mxGeometry x="-1214" y="2830" width="12" height="12" as="geometry" />
        </mxCell>
        <mxCell id="enEflHNbiE4KMbk-d4w2-127" style="edgeStyle=orthogonalEdgeStyle;rounded=0;orthogonalLoop=1;jettySize=auto;html=1;exitX=0.5;exitY=0;exitDx=0;exitDy=0;endSize=1;" edge="1" parent="1">
          <mxGeometry relative="1" as="geometry">
            <mxPoint x="-1167.5" y="2854" as="sourcePoint" />
            <mxPoint x="-1168" y="2846" as="targetPoint" />
            <Array as="points">
              <mxPoint x="-1167" y="2849" />
              <mxPoint x="-1168" y="2849" />
            </Array>
          </mxGeometry>
        </mxCell>
        <mxCell id="enEflHNbiE4KMbk-d4w2-128" value="" style="rounded=1;whiteSpace=wrap;html=1;dashed=1;" vertex="1" parent="1">
          <mxGeometry x="-1223" y="2855" width="70" height="20" as="geometry" />
        </mxCell>
        <mxCell id="enEflHNbiE4KMbk-d4w2-129" value="" style="ellipse;whiteSpace=wrap;html=1;aspect=fixed;fillColor=#f5f5f5;strokeColor=#666666;fontColor=#333333;" vertex="1" parent="1">
          <mxGeometry x="-1174" y="2860" width="12" height="12" as="geometry" />
        </mxCell>
        <mxCell id="enEflHNbiE4KMbk-d4w2-130" value="" style="ellipse;whiteSpace=wrap;html=1;aspect=fixed;fillColor=#f5f5f5;strokeColor=#666666;fontColor=#333333;" vertex="1" parent="1">
          <mxGeometry x="-1194" y="2860" width="12" height="12" as="geometry" />
        </mxCell>
        <mxCell id="enEflHNbiE4KMbk-d4w2-131" value="" style="ellipse;whiteSpace=wrap;html=1;aspect=fixed;fillColor=#f5f5f5;strokeColor=#666666;fontColor=#333333;" vertex="1" parent="1">
          <mxGeometry x="-1214" y="2860" width="12" height="12" as="geometry" />
        </mxCell>
        <mxCell id="enEflHNbiE4KMbk-d4w2-132" value="&lt;font style=&quot;font-size: 10px;&quot;&gt;Deep net&lt;/font&gt;" style="text;html=1;strokeColor=none;fillColor=none;align=center;verticalAlign=middle;whiteSpace=wrap;rounded=0;" vertex="1" parent="1">
          <mxGeometry x="-1207" y="2793" width="56" height="22" as="geometry" />
        </mxCell>
        <mxCell id="enEflHNbiE4KMbk-d4w2-133" style="edgeStyle=orthogonalEdgeStyle;rounded=0;orthogonalLoop=1;jettySize=auto;html=1;exitX=0.5;exitY=0;exitDx=0;exitDy=0;endSize=1;" edge="1" parent="1">
          <mxGeometry relative="1" as="geometry">
            <mxPoint x="-1217" y="2822" as="sourcePoint" />
            <mxPoint x="-1217" y="2815" as="targetPoint" />
          </mxGeometry>
        </mxCell>
        <mxCell id="enEflHNbiE4KMbk-d4w2-134" style="edgeStyle=orthogonalEdgeStyle;rounded=0;orthogonalLoop=1;jettySize=auto;html=1;exitX=0.5;exitY=0;exitDx=0;exitDy=0;endSize=1;" edge="1" parent="1">
          <mxGeometry relative="1" as="geometry">
            <mxPoint x="-1217" y="2795" as="sourcePoint" />
            <mxPoint x="-1217" y="2788" as="targetPoint" />
          </mxGeometry>
        </mxCell>
        <mxCell id="enEflHNbiE4KMbk-d4w2-135" value="..." style="text;html=1;strokeColor=none;fillColor=none;align=center;verticalAlign=middle;whiteSpace=wrap;rounded=0;" vertex="1" parent="1">
          <mxGeometry x="-1233.5" y="2795" width="33" height="11" as="geometry" />
        </mxCell>
        <mxCell id="enEflHNbiE4KMbk-d4w2-137" value="Concat" style="rounded=1;whiteSpace=wrap;html=1;labelBorderColor=none;strokeColor=#000000;fontSize=12;fontColor=#000000;fillColor=none;" vertex="1" parent="1">
          <mxGeometry x="-1142" y="2840" width="65" height="20" as="geometry" />
        </mxCell>
        <mxCell id="enEflHNbiE4KMbk-d4w2-138" value="Concat" style="rounded=1;whiteSpace=wrap;html=1;labelBorderColor=none;strokeColor=#000000;fontSize=12;fontColor=#000000;fillColor=none;" vertex="1" parent="1">
          <mxGeometry x="-1062" y="2840" width="65" height="20" as="geometry" />
        </mxCell>
        <mxCell id="enEflHNbiE4KMbk-d4w2-139" value="Concat" style="rounded=1;whiteSpace=wrap;html=1;labelBorderColor=none;strokeColor=#000000;fontSize=12;fontColor=#000000;fillColor=none;" vertex="1" parent="1">
          <mxGeometry x="-982" y="2840" width="65" height="20" as="geometry" />
        </mxCell>
        <mxCell id="enEflHNbiE4KMbk-d4w2-140" value="1-Layer" style="rounded=1;whiteSpace=wrap;html=1;labelBorderColor=none;strokeColor=#000000;fontSize=12;fontColor=#000000;fillColor=none;" vertex="1" parent="1">
          <mxGeometry x="-1142" y="2810" width="65" height="20" as="geometry" />
        </mxCell>
        <mxCell id="enEflHNbiE4KMbk-d4w2-141" value="1-Layer" style="rounded=1;whiteSpace=wrap;html=1;labelBorderColor=none;strokeColor=#000000;fontSize=12;fontColor=#000000;fillColor=none;" vertex="1" parent="1">
          <mxGeometry x="-1062" y="2810" width="65" height="20" as="geometry" />
        </mxCell>
        <mxCell id="enEflHNbiE4KMbk-d4w2-142" value="1-Layer" style="rounded=1;whiteSpace=wrap;html=1;labelBorderColor=none;strokeColor=#000000;fontSize=12;fontColor=#000000;fillColor=none;" vertex="1" parent="1">
          <mxGeometry x="-982" y="2810" width="65" height="20" as="geometry" />
        </mxCell>
        <mxCell id="enEflHNbiE4KMbk-d4w2-143" value="&lt;font style=&quot;font-size: 12px;&quot;&gt;Softmax&lt;/font&gt;" style="rounded=1;whiteSpace=wrap;html=1;labelBorderColor=none;strokeColor=#000000;fontSize=14;fontColor=#000000;fillColor=none;" vertex="1" parent="1">
          <mxGeometry x="-1142" y="2780" width="235" height="20" as="geometry" />
        </mxCell>
        <mxCell id="enEflHNbiE4KMbk-d4w2-144" value="" style="group" vertex="1" connectable="0" parent="1">
          <mxGeometry x="-1122" y="2754" width="16" height="13" as="geometry" />
        </mxCell>
        <mxCell id="enEflHNbiE4KMbk-d4w2-145" value="" style="ellipse;whiteSpace=wrap;html=1;aspect=fixed;labelBorderColor=none;strokeColor=#000000;fontSize=14;fontColor=#000000;fillColor=none;" vertex="1" parent="enEflHNbiE4KMbk-d4w2-144">
          <mxGeometry x="4" y="-2" width="13" height="13" as="geometry" />
        </mxCell>
        <mxCell id="enEflHNbiE4KMbk-d4w2-146" value="" style="endArrow=none;html=1;rounded=0;strokeColor=#000000;fontSize=14;fontColor=#000000;entryX=1;entryY=0;entryDx=0;entryDy=0;exitX=0;exitY=1;exitDx=0;exitDy=0;" edge="1" parent="enEflHNbiE4KMbk-d4w2-144" source="enEflHNbiE4KMbk-d4w2-145" target="enEflHNbiE4KMbk-d4w2-145">
          <mxGeometry width="50" height="50" relative="1" as="geometry">
            <mxPoint x="28" y="14.3" as="sourcePoint" />
            <mxPoint x="38" y="6.175000000000001" as="targetPoint" />
          </mxGeometry>
        </mxCell>
        <mxCell id="enEflHNbiE4KMbk-d4w2-147" value="" style="endArrow=none;html=1;rounded=0;strokeColor=#000000;fontSize=14;fontColor=#000000;entryX=0;entryY=0;entryDx=0;entryDy=0;exitX=1;exitY=1;exitDx=0;exitDy=0;" edge="1" parent="enEflHNbiE4KMbk-d4w2-144" source="enEflHNbiE4KMbk-d4w2-145" target="enEflHNbiE4KMbk-d4w2-145">
          <mxGeometry width="50" height="50" relative="1" as="geometry">
            <mxPoint x="4.343145750507666" y="12.721194077712543" as="sourcePoint" />
            <mxPoint x="15.656854249492335" y="3.52880592228746" as="targetPoint" />
          </mxGeometry>
        </mxCell>
        <mxCell id="enEflHNbiE4KMbk-d4w2-148" value="" style="group" vertex="1" connectable="0" parent="1">
          <mxGeometry x="-1042" y="2754" width="17" height="13" as="geometry" />
        </mxCell>
        <mxCell id="enEflHNbiE4KMbk-d4w2-149" value="" style="ellipse;whiteSpace=wrap;html=1;aspect=fixed;labelBorderColor=none;strokeColor=#000000;fontSize=14;fontColor=#000000;fillColor=none;" vertex="1" parent="enEflHNbiE4KMbk-d4w2-148">
          <mxGeometry width="13" height="13" as="geometry" />
        </mxCell>
        <mxCell id="enEflHNbiE4KMbk-d4w2-150" value="" style="endArrow=none;html=1;rounded=0;strokeColor=#000000;fontSize=14;fontColor=#000000;entryX=1;entryY=0;entryDx=0;entryDy=0;exitX=0;exitY=1;exitDx=0;exitDy=0;" edge="1" parent="enEflHNbiE4KMbk-d4w2-148" source="enEflHNbiE4KMbk-d4w2-149" target="enEflHNbiE4KMbk-d4w2-149">
          <mxGeometry width="50" height="50" relative="1" as="geometry">
            <mxPoint x="29.75" y="14.3" as="sourcePoint" />
            <mxPoint x="40.375" y="6.175000000000001" as="targetPoint" />
          </mxGeometry>
        </mxCell>
        <mxCell id="enEflHNbiE4KMbk-d4w2-151" value="" style="endArrow=none;html=1;rounded=0;strokeColor=#000000;fontSize=14;fontColor=#000000;entryX=0;entryY=0;entryDx=0;entryDy=0;exitX=1;exitY=1;exitDx=0;exitDy=0;" edge="1" parent="enEflHNbiE4KMbk-d4w2-148" source="enEflHNbiE4KMbk-d4w2-149" target="enEflHNbiE4KMbk-d4w2-149">
          <mxGeometry width="50" height="50" relative="1" as="geometry">
            <mxPoint x="4.614592359914394" y="12.721194077712543" as="sourcePoint" />
            <mxPoint x="16.635407640085607" y="3.52880592228746" as="targetPoint" />
          </mxGeometry>
        </mxCell>
        <mxCell id="enEflHNbiE4KMbk-d4w2-152" value="" style="group" vertex="1" connectable="0" parent="1">
          <mxGeometry x="-960" y="2747" width="20" height="18" as="geometry" />
        </mxCell>
        <mxCell id="enEflHNbiE4KMbk-d4w2-153" value="" style="ellipse;whiteSpace=wrap;html=1;aspect=fixed;labelBorderColor=none;strokeColor=#000000;fontSize=14;fontColor=#000000;fillColor=none;" vertex="1" parent="enEflHNbiE4KMbk-d4w2-152">
          <mxGeometry y="5" width="13" height="13" as="geometry" />
        </mxCell>
        <mxCell id="enEflHNbiE4KMbk-d4w2-154" value="" style="endArrow=none;html=1;rounded=0;strokeColor=#000000;fontSize=14;fontColor=#000000;entryX=1;entryY=0;entryDx=0;entryDy=0;exitX=0;exitY=1;exitDx=0;exitDy=0;" edge="1" parent="enEflHNbiE4KMbk-d4w2-152" source="enEflHNbiE4KMbk-d4w2-153" target="enEflHNbiE4KMbk-d4w2-153">
          <mxGeometry width="50" height="50" relative="1" as="geometry">
            <mxPoint x="35" y="19.8" as="sourcePoint" />
            <mxPoint x="47.5" y="8.55" as="targetPoint" />
          </mxGeometry>
        </mxCell>
        <mxCell id="enEflHNbiE4KMbk-d4w2-155" value="" style="endArrow=none;html=1;rounded=0;strokeColor=#000000;fontSize=14;fontColor=#000000;entryX=0;entryY=0;entryDx=0;entryDy=0;exitX=1;exitY=1;exitDx=0;exitDy=0;" edge="1" parent="enEflHNbiE4KMbk-d4w2-152" source="enEflHNbiE4KMbk-d4w2-153" target="enEflHNbiE4KMbk-d4w2-153">
          <mxGeometry width="50" height="50" relative="1" as="geometry">
            <mxPoint x="5.428932188134581" y="17.613961030678905" as="sourcePoint" />
            <mxPoint x="19.57106781186542" y="4.886038969321098" as="targetPoint" />
          </mxGeometry>
        </mxCell>
        <mxCell id="enEflHNbiE4KMbk-d4w2-156" value="" style="group" vertex="1" connectable="0" parent="1">
          <mxGeometry x="-1042" y="2722" width="17" height="13" as="geometry" />
        </mxCell>
        <mxCell id="enEflHNbiE4KMbk-d4w2-157" value="" style="ellipse;whiteSpace=wrap;html=1;aspect=fixed;labelBorderColor=none;strokeColor=#000000;fontSize=14;fontColor=#000000;fillColor=none;" vertex="1" parent="enEflHNbiE4KMbk-d4w2-156">
          <mxGeometry x="1" y="4" width="13" height="13" as="geometry" />
        </mxCell>
        <mxCell id="enEflHNbiE4KMbk-d4w2-158" value="" style="endArrow=none;html=1;rounded=0;strokeColor=#000000;fontSize=14;fontColor=#000000;entryX=1;entryY=0;entryDx=0;entryDy=0;exitX=0;exitY=1;exitDx=0;exitDy=0;" edge="1" parent="enEflHNbiE4KMbk-d4w2-156" source="enEflHNbiE4KMbk-d4w2-157" target="enEflHNbiE4KMbk-d4w2-157">
          <mxGeometry width="50" height="50" relative="1" as="geometry">
            <mxPoint x="29.75" y="14.3" as="sourcePoint" />
            <mxPoint x="40.375" y="6.175000000000001" as="targetPoint" />
          </mxGeometry>
        </mxCell>
        <mxCell id="enEflHNbiE4KMbk-d4w2-159" value="" style="endArrow=none;html=1;rounded=0;strokeColor=#000000;fontSize=14;fontColor=#000000;entryX=0;entryY=0;entryDx=0;entryDy=0;exitX=1;exitY=1;exitDx=0;exitDy=0;" edge="1" parent="enEflHNbiE4KMbk-d4w2-156" source="enEflHNbiE4KMbk-d4w2-157" target="enEflHNbiE4KMbk-d4w2-157">
          <mxGeometry width="50" height="50" relative="1" as="geometry">
            <mxPoint x="4.614592359914394" y="12.721194077712543" as="sourcePoint" />
            <mxPoint x="16.635407640085607" y="3.52880592228746" as="targetPoint" />
          </mxGeometry>
        </mxCell>
        <mxCell id="enEflHNbiE4KMbk-d4w2-160" value="" style="endArrow=classic;html=1;rounded=0;strokeColor=#000000;fontSize=14;fontColor=#000000;entryX=0.846;entryY=1.067;entryDx=0;entryDy=0;entryPerimeter=0;exitX=0.129;exitY=0.033;exitDx=0;exitDy=0;exitPerimeter=0;" edge="1" parent="1" source="enEflHNbiE4KMbk-d4w2-143">
          <mxGeometry width="50" height="50" relative="1" as="geometry">
            <mxPoint x="-1111" y="2783" as="sourcePoint" />
            <mxPoint x="-1112.0100000000011" y="2767.34" as="targetPoint" />
          </mxGeometry>
        </mxCell>
        <mxCell id="enEflHNbiE4KMbk-d4w2-161" value="" style="endArrow=classic;html=1;rounded=0;strokeColor=#000000;fontSize=14;fontColor=#000000;entryX=0.846;entryY=1.067;entryDx=0;entryDy=0;entryPerimeter=0;" edge="1" parent="1">
          <mxGeometry width="50" height="50" relative="1" as="geometry">
            <mxPoint x="-1035" y="2781" as="sourcePoint" />
            <mxPoint x="-1035.0100000000011" y="2767.34" as="targetPoint" />
          </mxGeometry>
        </mxCell>
        <mxCell id="enEflHNbiE4KMbk-d4w2-162" value="" style="endArrow=classic;html=1;rounded=0;strokeColor=#000000;fontSize=14;fontColor=#000000;entryX=0.846;entryY=1.067;entryDx=0;entryDy=0;entryPerimeter=0;" edge="1" parent="1">
          <mxGeometry width="50" height="50" relative="1" as="geometry">
            <mxPoint x="-952" y="2781" as="sourcePoint" />
            <mxPoint x="-952.0100000000011" y="2767.34" as="targetPoint" />
          </mxGeometry>
        </mxCell>
        <mxCell id="enEflHNbiE4KMbk-d4w2-163" value="" style="endArrow=classic;html=1;rounded=0;strokeColor=#000000;fontSize=14;fontColor=#000000;entryX=0.846;entryY=1.067;entryDx=0;entryDy=0;entryPerimeter=0;" edge="1" parent="1">
          <mxGeometry width="50" height="50" relative="1" as="geometry">
            <mxPoint x="-1035" y="2753" as="sourcePoint" />
            <mxPoint x="-1035.0100000000011" y="2737.34" as="targetPoint" />
          </mxGeometry>
        </mxCell>
        <mxCell id="enEflHNbiE4KMbk-d4w2-164" value="" style="endArrow=classic;html=1;rounded=0;strokeColor=#000000;fontSize=14;fontColor=#000000;exitX=0.5;exitY=0;exitDx=0;exitDy=0;entryX=0;entryY=0.5;entryDx=0;entryDy=0;edgeStyle=orthogonalEdgeStyle;" edge="1" parent="1" source="enEflHNbiE4KMbk-d4w2-145" target="enEflHNbiE4KMbk-d4w2-157">
          <mxGeometry width="50" height="50" relative="1" as="geometry">
            <mxPoint x="-1132" y="2733" as="sourcePoint" />
            <mxPoint x="-1082" y="2683" as="targetPoint" />
          </mxGeometry>
        </mxCell>
        <mxCell id="enEflHNbiE4KMbk-d4w2-165" value="" style="endArrow=classic;html=1;rounded=0;strokeColor=#000000;fontSize=14;fontColor=#000000;exitX=0.5;exitY=0;exitDx=0;exitDy=0;entryX=1;entryY=0.5;entryDx=0;entryDy=0;edgeStyle=orthogonalEdgeStyle;" edge="1" parent="1" source="enEflHNbiE4KMbk-d4w2-153" target="enEflHNbiE4KMbk-d4w2-157">
          <mxGeometry width="50" height="50" relative="1" as="geometry">
            <mxPoint x="-992" y="2733" as="sourcePoint" />
            <mxPoint x="-942" y="2683" as="targetPoint" />
          </mxGeometry>
        </mxCell>
        <mxCell id="enEflHNbiE4KMbk-d4w2-166" value="&lt;font style=&quot;font-size: 12px;&quot; color=&quot;#000000&quot;&gt;Target &lt;br&gt;Attention&lt;/font&gt;" style="text;html=1;strokeColor=none;fillColor=none;align=center;verticalAlign=middle;whiteSpace=wrap;rounded=0;dashed=1;fontColor=#707070;opacity=1;" vertex="1" parent="1">
          <mxGeometry x="-1094.88" y="2911.25" width="122.75" height="29" as="geometry" />
        </mxCell>
        <mxCell id="enEflHNbiE4KMbk-d4w2-167" style="edgeStyle=orthogonalEdgeStyle;rounded=0;orthogonalLoop=1;jettySize=auto;html=1;exitX=0.5;exitY=0;exitDx=0;exitDy=0;entryX=0.75;entryY=1;entryDx=0;entryDy=0;dashed=1;dashPattern=1 1;" edge="1" parent="1" source="enEflHNbiE4KMbk-d4w2-173" target="enEflHNbiE4KMbk-d4w2-137">
          <mxGeometry relative="1" as="geometry">
            <Array as="points">
              <mxPoint x="-964" y="2880" />
              <mxPoint x="-1093" y="2880" />
            </Array>
          </mxGeometry>
        </mxCell>
        <mxCell id="enEflHNbiE4KMbk-d4w2-168" style="edgeStyle=orthogonalEdgeStyle;rounded=0;orthogonalLoop=1;jettySize=auto;html=1;exitX=0.5;exitY=0;exitDx=0;exitDy=0;entryX=0.75;entryY=1;entryDx=0;entryDy=0;dashed=1;dashPattern=1 1;" edge="1" parent="1" source="enEflHNbiE4KMbk-d4w2-173" target="enEflHNbiE4KMbk-d4w2-138">
          <mxGeometry relative="1" as="geometry">
            <Array as="points">
              <mxPoint x="-964" y="2880" />
              <mxPoint x="-1013" y="2880" />
            </Array>
          </mxGeometry>
        </mxCell>
        <mxCell id="enEflHNbiE4KMbk-d4w2-169" style="edgeStyle=orthogonalEdgeStyle;rounded=0;orthogonalLoop=1;jettySize=auto;html=1;exitX=0.5;exitY=0;exitDx=0;exitDy=0;entryX=0.25;entryY=1;entryDx=0;entryDy=0;dashed=1;dashPattern=1 1;" edge="1" parent="1" source="enEflHNbiE4KMbk-d4w2-173" target="enEflHNbiE4KMbk-d4w2-139">
          <mxGeometry relative="1" as="geometry" />
        </mxCell>
        <mxCell id="enEflHNbiE4KMbk-d4w2-170" style="edgeStyle=orthogonalEdgeStyle;rounded=0;orthogonalLoop=1;jettySize=auto;html=1;exitX=1;exitY=0.5;exitDx=0;exitDy=0;entryX=1;entryY=0.5;entryDx=0;entryDy=0;dashed=1;dashPattern=1 1;" edge="1" parent="1" source="enEflHNbiE4KMbk-d4w2-173" target="enEflHNbiE4KMbk-d4w2-153">
          <mxGeometry relative="1" as="geometry">
            <Array as="points">
              <mxPoint x="-901" y="2895" />
              <mxPoint x="-901" y="2758" />
            </Array>
          </mxGeometry>
        </mxCell>
        <mxCell id="enEflHNbiE4KMbk-d4w2-171" style="edgeStyle=orthogonalEdgeStyle;rounded=0;orthogonalLoop=1;jettySize=auto;html=1;exitX=0.25;exitY=0;exitDx=0;exitDy=0;entryX=1;entryY=0.5;entryDx=0;entryDy=0;dashed=1;dashPattern=1 1;" edge="1" parent="1" source="enEflHNbiE4KMbk-d4w2-173" target="enEflHNbiE4KMbk-d4w2-149">
          <mxGeometry relative="1" as="geometry" />
        </mxCell>
        <mxCell id="enEflHNbiE4KMbk-d4w2-172" style="edgeStyle=orthogonalEdgeStyle;rounded=0;orthogonalLoop=1;jettySize=auto;html=1;exitX=0;exitY=0.5;exitDx=0;exitDy=0;entryX=1;entryY=0.5;entryDx=0;entryDy=0;dashed=1;dashPattern=1 1;" edge="1" parent="1" source="enEflHNbiE4KMbk-d4w2-173" target="enEflHNbiE4KMbk-d4w2-145">
          <mxGeometry relative="1" as="geometry">
            <Array as="points">
              <mxPoint x="-1068" y="2895" />
              <mxPoint x="-1068" y="2758" />
            </Array>
          </mxGeometry>
        </mxCell>
        <mxCell id="enEflHNbiE4KMbk-d4w2-173" value="" style="rounded=1;whiteSpace=wrap;html=1;dashed=1;" vertex="1" parent="1">
          <mxGeometry x="-1020" y="2885" width="111" height="20" as="geometry" />
        </mxCell>
        <mxCell id="enEflHNbiE4KMbk-d4w2-174" value="" style="ellipse;whiteSpace=wrap;html=1;aspect=fixed;fillColor=#e1d5e7;strokeColor=#9673a6;" vertex="1" parent="1">
          <mxGeometry x="-931" y="2890" width="12" height="12" as="geometry" />
        </mxCell>
        <mxCell id="enEflHNbiE4KMbk-d4w2-175" value="" style="ellipse;whiteSpace=wrap;html=1;aspect=fixed;fillColor=#e1d5e7;strokeColor=#9673a6;" vertex="1" parent="1">
          <mxGeometry x="-951" y="2890" width="12" height="12" as="geometry" />
        </mxCell>
        <mxCell id="enEflHNbiE4KMbk-d4w2-176" value="" style="ellipse;whiteSpace=wrap;html=1;aspect=fixed;fillColor=#e1d5e7;strokeColor=#9673a6;" vertex="1" parent="1">
          <mxGeometry x="-971" y="2890" width="12" height="12" as="geometry" />
        </mxCell>
        <mxCell id="enEflHNbiE4KMbk-d4w2-177" value="" style="ellipse;whiteSpace=wrap;html=1;aspect=fixed;fillColor=#e1d5e7;strokeColor=#9673a6;" vertex="1" parent="1">
          <mxGeometry x="-991" y="2890" width="12" height="12" as="geometry" />
        </mxCell>
        <mxCell id="enEflHNbiE4KMbk-d4w2-178" value="" style="ellipse;whiteSpace=wrap;html=1;aspect=fixed;fillColor=#e1d5e7;strokeColor=#9673a6;" vertex="1" parent="1">
          <mxGeometry x="-1011" y="2890" width="12" height="12" as="geometry" />
        </mxCell>
        <mxCell id="enEflHNbiE4KMbk-d4w2-179" style="edgeStyle=orthogonalEdgeStyle;rounded=0;orthogonalLoop=1;jettySize=auto;html=1;exitX=0.5;exitY=0;exitDx=0;exitDy=0;entryX=0.5;entryY=1;entryDx=0;entryDy=0;dashed=1;dashPattern=1 1;" edge="1" parent="1" source="enEflHNbiE4KMbk-d4w2-182" target="enEflHNbiE4KMbk-d4w2-137">
          <mxGeometry relative="1" as="geometry" />
        </mxCell>
        <mxCell id="enEflHNbiE4KMbk-d4w2-180" style="edgeStyle=orthogonalEdgeStyle;rounded=0;orthogonalLoop=1;jettySize=auto;html=1;exitX=0.5;exitY=0;exitDx=0;exitDy=0;entryX=0.5;entryY=1;entryDx=0;entryDy=0;dashed=1;dashPattern=1 1;" edge="1" parent="1" source="enEflHNbiE4KMbk-d4w2-182" target="enEflHNbiE4KMbk-d4w2-138">
          <mxGeometry relative="1" as="geometry">
            <Array as="points">
              <mxPoint x="-1108" y="2875" />
              <mxPoint x="-1029" y="2875" />
            </Array>
          </mxGeometry>
        </mxCell>
        <mxCell id="enEflHNbiE4KMbk-d4w2-181" style="edgeStyle=orthogonalEdgeStyle;rounded=0;orthogonalLoop=1;jettySize=auto;html=1;exitX=0.5;exitY=0;exitDx=0;exitDy=0;entryX=0.5;entryY=1;entryDx=0;entryDy=0;dashed=1;dashPattern=1 1;" edge="1" parent="1" source="enEflHNbiE4KMbk-d4w2-182" target="enEflHNbiE4KMbk-d4w2-139">
          <mxGeometry relative="1" as="geometry">
            <Array as="points">
              <mxPoint x="-1108" y="2875" />
              <mxPoint x="-949" y="2875" />
            </Array>
          </mxGeometry>
        </mxCell>
        <mxCell id="enEflHNbiE4KMbk-d4w2-182" value="" style="rounded=1;whiteSpace=wrap;html=1;dashed=1;" vertex="1" parent="1">
          <mxGeometry x="-1143" y="2885" width="70" height="20" as="geometry" />
        </mxCell>
        <mxCell id="enEflHNbiE4KMbk-d4w2-183" value="" style="ellipse;whiteSpace=wrap;html=1;aspect=fixed;fillColor=#647687;strokeColor=#314354;fontColor=#ffffff;" vertex="1" parent="1">
          <mxGeometry x="-1094" y="2890" width="12" height="12" as="geometry" />
        </mxCell>
        <mxCell id="enEflHNbiE4KMbk-d4w2-184" value="" style="ellipse;whiteSpace=wrap;html=1;aspect=fixed;fillColor=#647687;strokeColor=#314354;fontColor=#ffffff;" vertex="1" parent="1">
          <mxGeometry x="-1114" y="2890" width="12" height="12" as="geometry" />
        </mxCell>
        <mxCell id="enEflHNbiE4KMbk-d4w2-185" value="" style="ellipse;whiteSpace=wrap;html=1;aspect=fixed;fillColor=#647687;strokeColor=#314354;fontColor=#ffffff;" vertex="1" parent="1">
          <mxGeometry x="-1134" y="2890" width="12" height="12" as="geometry" />
        </mxCell>
        <mxCell id="enEflHNbiE4KMbk-d4w2-191" style="edgeStyle=orthogonalEdgeStyle;rounded=0;orthogonalLoop=1;jettySize=auto;html=1;exitX=0.5;exitY=0;exitDx=0;exitDy=0;dashed=1;entryX=0.25;entryY=1;entryDx=0;entryDy=0;" edge="1" parent="1" target="enEflHNbiE4KMbk-d4w2-202">
          <mxGeometry relative="1" as="geometry">
            <mxPoint x="-1035" y="2707" as="targetPoint" />
            <mxPoint x="-1036" y="2723" as="sourcePoint" />
          </mxGeometry>
        </mxCell>
        <mxCell id="enEflHNbiE4KMbk-d4w2-199" style="edgeStyle=orthogonalEdgeStyle;rounded=0;orthogonalLoop=1;jettySize=auto;html=1;exitX=0.5;exitY=0;exitDx=0;exitDy=0;entryX=0.435;entryY=1.055;entryDx=0;entryDy=0;entryPerimeter=0;dashed=1;" edge="1" parent="1">
          <mxGeometry relative="1" as="geometry">
            <mxPoint x="-1381" y="2690" as="sourcePoint" />
            <mxPoint x="-1380.725" y="2673.1" as="targetPoint" />
          </mxGeometry>
        </mxCell>
        <mxCell id="enEflHNbiE4KMbk-d4w2-201" value="" style="rounded=0;whiteSpace=wrap;html=1;fillColor=#f8cecc;gradientDirection=north;strokeColor=#000000;" vertex="1" parent="1">
          <mxGeometry x="-1048" y="2705" width="10" height="10" as="geometry" />
        </mxCell>
        <mxCell id="enEflHNbiE4KMbk-d4w2-202" value="" style="rounded=0;whiteSpace=wrap;html=1;fillColor=#f8cecc;gradientDirection=north;strokeColor=#000000;" vertex="1" parent="1">
          <mxGeometry x="-1038" y="2705" width="10" height="10" as="geometry" />
        </mxCell>
        <mxCell id="enEflHNbiE4KMbk-d4w2-203" value="" style="rounded=0;whiteSpace=wrap;html=1;fillColor=#f8cecc;gradientDirection=north;strokeColor=#000000;" vertex="1" parent="1">
          <mxGeometry x="-1028" y="2705" width="10" height="10" as="geometry" />
        </mxCell>
        <mxCell id="enEflHNbiE4KMbk-d4w2-204" value="" style="rounded=0;whiteSpace=wrap;html=1;fillColor=#f8cecc;gradientDirection=north;strokeColor=#000000;" vertex="1" parent="1">
          <mxGeometry x="-1058" y="2705" width="10" height="10" as="geometry" />
        </mxCell>
        <mxCell id="enEflHNbiE4KMbk-d4w2-206" value="&lt;font style=&quot;font-size: 11px;&quot;&gt;Add+Sigmod&lt;/font&gt;" style="rounded=1;whiteSpace=wrap;html=1;labelBorderColor=none;strokeColor=#000000;fontSize=12;fontColor=#000000;fillColor=none;" vertex="1" parent="1">
          <mxGeometry x="-1420" y="2653" width="80" height="19" as="geometry" />
        </mxCell>
        <mxCell id="enEflHNbiE4KMbk-d4w2-459" style="edgeStyle=orthogonalEdgeStyle;rounded=0;orthogonalLoop=1;jettySize=auto;html=1;exitX=0.53;exitY=0.022;exitDx=0;exitDy=0;exitPerimeter=0;" edge="1" parent="1">
          <mxGeometry relative="1" as="geometry">
            <mxPoint x="-1379.2" y="2617.66" as="sourcePoint" />
            <mxPoint x="-1379" y="2603" as="targetPoint" />
          </mxGeometry>
        </mxCell>
        <mxCell id="enEflHNbiE4KMbk-d4w2-208" value="Student" style="text;html=1;strokeColor=none;fillColor=none;align=center;verticalAlign=middle;whiteSpace=wrap;rounded=0;" vertex="1" parent="1">
          <mxGeometry x="-1410" y="2616" width="60" height="30" as="geometry" />
        </mxCell>
        <mxCell id="enEflHNbiE4KMbk-d4w2-216" value="&lt;font style=&quot;font-size: 11px;&quot;&gt;BN+Mul&lt;/font&gt;" style="rounded=1;whiteSpace=wrap;html=1;labelBorderColor=none;strokeColor=#000000;fontSize=14;fontColor=#000000;fillColor=none;" vertex="1" parent="1">
          <mxGeometry x="-1165.5" y="2635.5" width="131" height="17" as="geometry" />
        </mxCell>
        <mxCell id="enEflHNbiE4KMbk-d4w2-217" style="edgeStyle=orthogonalEdgeStyle;rounded=0;orthogonalLoop=1;jettySize=auto;html=1;entryX=0.435;entryY=1.055;entryDx=0;entryDy=0;entryPerimeter=0;dashed=1;" edge="1" parent="1">
          <mxGeometry relative="1" as="geometry">
            <mxPoint x="-1098" y="2634" as="sourcePoint" />
            <mxPoint x="-1098.725" y="2620.02" as="targetPoint" />
          </mxGeometry>
        </mxCell>
        <mxCell id="enEflHNbiE4KMbk-d4w2-220" value="&lt;font style=&quot;font-size: 11px;&quot;&gt;Add+Sigmod&lt;/font&gt;" style="rounded=1;whiteSpace=wrap;html=1;labelBorderColor=none;strokeColor=#000000;fontSize=12;fontColor=#000000;fillColor=none;" vertex="1" parent="1">
          <mxGeometry x="-1138" y="2600.92" width="80" height="20" as="geometry" />
        </mxCell>
        <mxCell id="enEflHNbiE4KMbk-d4w2-222" value="Teacher" style="text;html=1;strokeColor=none;fillColor=none;align=center;verticalAlign=middle;whiteSpace=wrap;rounded=0;" vertex="1" parent="1">
          <mxGeometry x="-1130" y="2569" width="60" height="30" as="geometry" />
        </mxCell>
        <mxCell id="enEflHNbiE4KMbk-d4w2-232" value="" style="rounded=0;whiteSpace=wrap;html=1;fillColor=#f8cecc;gradientDirection=north;strokeColor=#000000;" vertex="1" parent="1">
          <mxGeometry x="-1068" y="2705" width="10" height="10" as="geometry" />
        </mxCell>
        <mxCell id="enEflHNbiE4KMbk-d4w2-234" value="" style="rounded=0;whiteSpace=wrap;html=1;fillColor=#f8cecc;gradientDirection=north;strokeColor=#000000;" vertex="1" parent="1">
          <mxGeometry x="-1078" y="2705" width="10" height="10" as="geometry" />
        </mxCell>
        <mxCell id="enEflHNbiE4KMbk-d4w2-235" value="" style="rounded=0;whiteSpace=wrap;html=1;fillColor=#f8cecc;gradientDirection=north;strokeColor=#000000;" vertex="1" parent="1">
          <mxGeometry x="-1018" y="2705" width="10" height="10" as="geometry" />
        </mxCell>
        <mxCell id="enEflHNbiE4KMbk-d4w2-236" value="" style="rounded=0;whiteSpace=wrap;html=1;fillColor=#f8cecc;gradientDirection=north;strokeColor=#000000;" vertex="1" parent="1">
          <mxGeometry x="-1028" y="2705" width="10" height="10" as="geometry" />
        </mxCell>
        <mxCell id="enEflHNbiE4KMbk-d4w2-237" value="" style="rounded=0;whiteSpace=wrap;html=1;fillColor=#fff2cc;gradientDirection=north;strokeColor=#1A1A1A;" vertex="1" parent="1">
          <mxGeometry x="-1129" y="2705" width="10" height="10" as="geometry" />
        </mxCell>
        <mxCell id="enEflHNbiE4KMbk-d4w2-238" value="" style="rounded=0;whiteSpace=wrap;html=1;fillColor=#f5f5f5;gradientDirection=north;fontColor=#333333;strokeColor=#1A1A1A;" vertex="1" parent="1">
          <mxGeometry x="-1119" y="2705" width="10" height="10" as="geometry" />
        </mxCell>
        <mxCell id="enEflHNbiE4KMbk-d4w2-240" value="" style="rounded=0;whiteSpace=wrap;html=1;fillColor=#f5f5f5;gradientDirection=north;fontColor=#333333;strokeColor=#1A1A1A;" vertex="1" parent="1">
          <mxGeometry x="-1109" y="2705" width="10" height="10" as="geometry" />
        </mxCell>
        <mxCell id="enEflHNbiE4KMbk-d4w2-241" value="" style="rounded=0;whiteSpace=wrap;html=1;fillColor=#fff2cc;gradientDirection=north;strokeColor=#1A1A1A;" vertex="1" parent="1">
          <mxGeometry x="-1189" y="2705" width="10" height="10" as="geometry" />
        </mxCell>
        <mxCell id="enEflHNbiE4KMbk-d4w2-242" value="" style="rounded=0;whiteSpace=wrap;html=1;fillColor=#f5f5f5;gradientDirection=north;fontColor=#333333;strokeColor=#1A1A1A;" vertex="1" parent="1">
          <mxGeometry x="-1179" y="2705" width="10" height="10" as="geometry" />
        </mxCell>
        <mxCell id="enEflHNbiE4KMbk-d4w2-243" value="" style="rounded=0;whiteSpace=wrap;html=1;fillColor=#f5f5f5;gradientDirection=north;fontColor=#333333;strokeColor=#1A1A1A;" vertex="1" parent="1">
          <mxGeometry x="-1169" y="2705" width="10" height="10" as="geometry" />
        </mxCell>
        <mxCell id="enEflHNbiE4KMbk-d4w2-244" value="" style="rounded=0;whiteSpace=wrap;html=1;fillColor=#dae8fc;gradientDirection=north;strokeColor=#000000;" vertex="1" parent="1">
          <mxGeometry x="-921" y="2975" width="10" height="10" as="geometry" />
        </mxCell>
        <mxCell id="enEflHNbiE4KMbk-d4w2-245" value="" style="rounded=0;whiteSpace=wrap;html=1;fillColor=#f5f5f5;gradientDirection=north;strokeColor=#000000;fontColor=#333333;" vertex="1" parent="1">
          <mxGeometry x="-921" y="2985" width="10" height="10" as="geometry" />
        </mxCell>
        <mxCell id="enEflHNbiE4KMbk-d4w2-246" value="" style="rounded=0;whiteSpace=wrap;html=1;fillColor=#fff2cc;gradientDirection=north;strokeColor=#000000;" vertex="1" parent="1">
          <mxGeometry x="-921" y="2995" width="10" height="10" as="geometry" />
        </mxCell>
        <mxCell id="enEflHNbiE4KMbk-d4w2-247" value="" style="rounded=0;whiteSpace=wrap;html=1;fillColor=#D9D9D9;gradientColor=none;gradientDirection=north;strokeColor=#000000;" vertex="1" parent="1">
          <mxGeometry x="-921" y="3005" width="10" height="10" as="geometry" />
        </mxCell>
        <mxCell id="enEflHNbiE4KMbk-d4w2-248" value="" style="rounded=0;whiteSpace=wrap;html=1;fillColor=#666666;gradientColor=none;gradientDirection=north;strokeColor=#000000;" vertex="1" parent="1">
          <mxGeometry x="-901" y="2975" width="10" height="10" as="geometry" />
        </mxCell>
        <mxCell id="enEflHNbiE4KMbk-d4w2-249" value="" style="rounded=0;whiteSpace=wrap;html=1;fillColor=#CCCCFF;gradientColor=none;gradientDirection=north;strokeColor=#000000;" vertex="1" parent="1">
          <mxGeometry x="-901" y="2985" width="10" height="10" as="geometry" />
        </mxCell>
        <mxCell id="enEflHNbiE4KMbk-d4w2-250" value="" style="rounded=0;whiteSpace=wrap;html=1;fillColor=#f5f5f5;gradientDirection=north;fontColor=#333333;strokeColor=#000000;" vertex="1" parent="1">
          <mxGeometry x="-901" y="2995" width="10" height="10" as="geometry" />
        </mxCell>
        <mxCell id="enEflHNbiE4KMbk-d4w2-251" value="" style="rounded=0;whiteSpace=wrap;html=1;fillColor=#D9D9D9;gradientColor=none;gradientDirection=north;strokeColor=#000000;" vertex="1" parent="1">
          <mxGeometry x="-901" y="3005" width="10" height="10" as="geometry" />
        </mxCell>
        <mxCell id="enEflHNbiE4KMbk-d4w2-252" value="" style="rounded=0;whiteSpace=wrap;html=1;fillColor=#f5f5f5;gradientDirection=north;strokeColor=#000000;fontColor=#333333;" vertex="1" parent="1">
          <mxGeometry x="-941" y="2975" width="10" height="10" as="geometry" />
        </mxCell>
        <mxCell id="enEflHNbiE4KMbk-d4w2-253" value="" style="rounded=0;whiteSpace=wrap;html=1;fillColor=#D9D9D9;gradientColor=none;gradientDirection=north;strokeColor=#000000;" vertex="1" parent="1">
          <mxGeometry x="-941" y="2985" width="10" height="10" as="geometry" />
        </mxCell>
        <mxCell id="enEflHNbiE4KMbk-d4w2-254" value="" style="rounded=0;whiteSpace=wrap;html=1;fillColor=#4D4D4D;gradientColor=none;gradientDirection=north;strokeColor=#000000;" vertex="1" parent="1">
          <mxGeometry x="-941" y="2995" width="10" height="10" as="geometry" />
        </mxCell>
        <mxCell id="enEflHNbiE4KMbk-d4w2-255" value="" style="rounded=0;whiteSpace=wrap;html=1;fillColor=#D9D9D9;gradientColor=none;gradientDirection=north;strokeColor=#000000;" vertex="1" parent="1">
          <mxGeometry x="-941" y="3005" width="10" height="10" as="geometry" />
        </mxCell>
        <mxCell id="enEflHNbiE4KMbk-d4w2-256" value="" style="ellipse;whiteSpace=wrap;html=1;aspect=fixed;" vertex="1" parent="1">
          <mxGeometry x="-943" y="3028" width="14" height="14" as="geometry" />
        </mxCell>
        <mxCell id="enEflHNbiE4KMbk-d4w2-257" value="" style="ellipse;whiteSpace=wrap;html=1;aspect=fixed;" vertex="1" parent="1">
          <mxGeometry x="-923" y="3028" width="14" height="14" as="geometry" />
        </mxCell>
        <mxCell id="enEflHNbiE4KMbk-d4w2-258" style="edgeStyle=orthogonalEdgeStyle;rounded=0;orthogonalLoop=1;jettySize=auto;html=1;exitX=0.5;exitY=0;exitDx=0;exitDy=0;entryX=0.5;entryY=1;entryDx=0;entryDy=0;endSize=3;strokeColor=#000000;" edge="1" parent="1" source="enEflHNbiE4KMbk-d4w2-259" target="enEflHNbiE4KMbk-d4w2-251">
          <mxGeometry relative="1" as="geometry" />
        </mxCell>
        <mxCell id="enEflHNbiE4KMbk-d4w2-259" value="" style="ellipse;whiteSpace=wrap;html=1;aspect=fixed;" vertex="1" parent="1">
          <mxGeometry x="-903" y="3028" width="14" height="14" as="geometry" />
        </mxCell>
        <mxCell id="enEflHNbiE4KMbk-d4w2-260" style="edgeStyle=orthogonalEdgeStyle;rounded=0;orthogonalLoop=1;jettySize=auto;html=1;exitX=0.5;exitY=0;exitDx=0;exitDy=0;entryX=0.5;entryY=1;entryDx=0;entryDy=0;endSize=3;strokeColor=#000000;" edge="1" parent="1">
          <mxGeometry relative="1" as="geometry">
            <mxPoint x="-916" y="3028" as="sourcePoint" />
            <mxPoint x="-916" y="3015" as="targetPoint" />
          </mxGeometry>
        </mxCell>
        <mxCell id="enEflHNbiE4KMbk-d4w2-261" style="edgeStyle=orthogonalEdgeStyle;rounded=0;orthogonalLoop=1;jettySize=auto;html=1;exitX=0.5;exitY=0;exitDx=0;exitDy=0;entryX=0.5;entryY=1;entryDx=0;entryDy=0;endSize=3;strokeColor=#000000;" edge="1" parent="1">
          <mxGeometry relative="1" as="geometry">
            <mxPoint x="-936" y="3028" as="sourcePoint" />
            <mxPoint x="-936" y="3015" as="targetPoint" />
          </mxGeometry>
        </mxCell>
        <mxCell id="enEflHNbiE4KMbk-d4w2-262" style="edgeStyle=orthogonalEdgeStyle;rounded=0;orthogonalLoop=1;jettySize=auto;html=1;exitX=0.5;exitY=0;exitDx=0;exitDy=0;endSize=1;" edge="1" parent="1">
          <mxGeometry relative="1" as="geometry">
            <mxPoint x="-1317.5" y="2874" as="sourcePoint" />
            <mxPoint x="-1318" y="2866" as="targetPoint" />
            <Array as="points">
              <mxPoint x="-1317" y="2869" />
              <mxPoint x="-1318" y="2869" />
            </Array>
          </mxGeometry>
        </mxCell>
        <mxCell id="enEflHNbiE4KMbk-d4w2-263" value="" style="rounded=1;whiteSpace=wrap;html=1;dashed=1;" vertex="1" parent="1">
          <mxGeometry x="-1373" y="2875" width="111" height="20" as="geometry" />
        </mxCell>
        <mxCell id="enEflHNbiE4KMbk-d4w2-264" value="" style="ellipse;whiteSpace=wrap;html=1;aspect=fixed;fillColor=#fff2cc;strokeColor=#d6b656;" vertex="1" parent="1">
          <mxGeometry x="-1284" y="2880" width="12" height="12" as="geometry" />
        </mxCell>
        <mxCell id="enEflHNbiE4KMbk-d4w2-265" value="" style="ellipse;whiteSpace=wrap;html=1;aspect=fixed;fillColor=#fff2cc;strokeColor=#d6b656;" vertex="1" parent="1">
          <mxGeometry x="-1304" y="2880" width="12" height="12" as="geometry" />
        </mxCell>
        <mxCell id="enEflHNbiE4KMbk-d4w2-266" value="" style="ellipse;whiteSpace=wrap;html=1;aspect=fixed;fillColor=#fff2cc;strokeColor=#d6b656;" vertex="1" parent="1">
          <mxGeometry x="-1324" y="2880" width="12" height="12" as="geometry" />
        </mxCell>
        <mxCell id="enEflHNbiE4KMbk-d4w2-267" value="" style="ellipse;whiteSpace=wrap;html=1;aspect=fixed;fillColor=#fff2cc;strokeColor=#d6b656;" vertex="1" parent="1">
          <mxGeometry x="-1344" y="2880" width="12" height="12" as="geometry" />
        </mxCell>
        <mxCell id="enEflHNbiE4KMbk-d4w2-268" value="" style="ellipse;whiteSpace=wrap;html=1;aspect=fixed;fillColor=#fff2cc;strokeColor=#d6b656;" vertex="1" parent="1">
          <mxGeometry x="-1364" y="2880" width="12" height="12" as="geometry" />
        </mxCell>
        <mxCell id="enEflHNbiE4KMbk-d4w2-269" style="edgeStyle=orthogonalEdgeStyle;rounded=0;orthogonalLoop=1;jettySize=auto;html=1;exitX=0.5;exitY=0;exitDx=0;exitDy=0;endSize=1;" edge="1" parent="1">
          <mxGeometry relative="1" as="geometry">
            <mxPoint x="-1167.5" y="2884" as="sourcePoint" />
            <mxPoint x="-1168" y="2876" as="targetPoint" />
            <Array as="points">
              <mxPoint x="-1167" y="2879" />
              <mxPoint x="-1168" y="2879" />
            </Array>
          </mxGeometry>
        </mxCell>
        <mxCell id="enEflHNbiE4KMbk-d4w2-270" value="" style="rounded=1;whiteSpace=wrap;html=1;dashed=1;" vertex="1" parent="1">
          <mxGeometry x="-1223" y="2885" width="70" height="20" as="geometry" />
        </mxCell>
        <mxCell id="enEflHNbiE4KMbk-d4w2-271" value="" style="ellipse;whiteSpace=wrap;html=1;aspect=fixed;fillColor=#f5f5f5;strokeColor=#666666;fontColor=#333333;" vertex="1" parent="1">
          <mxGeometry x="-1174" y="2890" width="12" height="12" as="geometry" />
        </mxCell>
        <mxCell id="enEflHNbiE4KMbk-d4w2-272" value="" style="ellipse;whiteSpace=wrap;html=1;aspect=fixed;fillColor=#f5f5f5;strokeColor=#666666;fontColor=#333333;" vertex="1" parent="1">
          <mxGeometry x="-1194" y="2890" width="12" height="12" as="geometry" />
        </mxCell>
        <mxCell id="enEflHNbiE4KMbk-d4w2-273" value="" style="ellipse;whiteSpace=wrap;html=1;aspect=fixed;fillColor=#f5f5f5;strokeColor=#666666;fontColor=#333333;" vertex="1" parent="1">
          <mxGeometry x="-1214" y="2890" width="12" height="12" as="geometry" />
        </mxCell>
        <mxCell id="enEflHNbiE4KMbk-d4w2-274" value="" style="rounded=0;whiteSpace=wrap;html=1;fillColor=#f8cecc;gradientDirection=north;strokeColor=#000000;" vertex="1" parent="1">
          <mxGeometry x="-1088" y="2705" width="10" height="10" as="geometry" />
        </mxCell>
        <mxCell id="enEflHNbiE4KMbk-d4w2-275" value="" style="rounded=0;whiteSpace=wrap;html=1;fillColor=#f8cecc;gradientDirection=north;strokeColor=#000000;" vertex="1" parent="1">
          <mxGeometry x="-1098" y="2705" width="10" height="10" as="geometry" />
        </mxCell>
        <mxCell id="enEflHNbiE4KMbk-d4w2-276" value="&lt;font style=&quot;font-size: 10px;&quot;&gt;Deep net&lt;/font&gt;" style="text;html=1;strokeColor=none;fillColor=none;align=center;verticalAlign=middle;whiteSpace=wrap;rounded=0;" vertex="1" parent="1">
          <mxGeometry x="-1375" y="2785" width="56" height="22" as="geometry" />
        </mxCell>
        <mxCell id="enEflHNbiE4KMbk-d4w2-479" style="edgeStyle=orthogonalEdgeStyle;rounded=0;orthogonalLoop=1;jettySize=auto;html=1;exitX=0.75;exitY=0;exitDx=0;exitDy=0;" edge="1" parent="1" source="enEflHNbiE4KMbk-d4w2-278">
          <mxGeometry relative="1" as="geometry">
            <mxPoint x="-1415" y="2738.666666666667" as="targetPoint" />
          </mxGeometry>
        </mxCell>
        <mxCell id="enEflHNbiE4KMbk-d4w2-278" value="" style="rounded=1;whiteSpace=wrap;html=1;dashed=1;" vertex="1" parent="1">
          <mxGeometry x="-1498" y="2756" width="111" height="20" as="geometry" />
        </mxCell>
        <mxCell id="enEflHNbiE4KMbk-d4w2-279" value="" style="ellipse;whiteSpace=wrap;html=1;aspect=fixed;fillColor=#fff2cc;strokeColor=#d6b656;" vertex="1" parent="1">
          <mxGeometry x="-1409" y="2761" width="12" height="12" as="geometry" />
        </mxCell>
        <mxCell id="enEflHNbiE4KMbk-d4w2-280" value="" style="ellipse;whiteSpace=wrap;html=1;aspect=fixed;fillColor=#fff2cc;strokeColor=#d6b656;" vertex="1" parent="1">
          <mxGeometry x="-1429" y="2761" width="12" height="12" as="geometry" />
        </mxCell>
        <mxCell id="enEflHNbiE4KMbk-d4w2-281" value="" style="ellipse;whiteSpace=wrap;html=1;aspect=fixed;fillColor=#fff2cc;strokeColor=#d6b656;" vertex="1" parent="1">
          <mxGeometry x="-1449" y="2761" width="12" height="12" as="geometry" />
        </mxCell>
        <mxCell id="enEflHNbiE4KMbk-d4w2-282" value="" style="ellipse;whiteSpace=wrap;html=1;aspect=fixed;fillColor=#fff2cc;strokeColor=#d6b656;" vertex="1" parent="1">
          <mxGeometry x="-1469" y="2761" width="12" height="12" as="geometry" />
        </mxCell>
        <mxCell id="enEflHNbiE4KMbk-d4w2-283" value="" style="ellipse;whiteSpace=wrap;html=1;aspect=fixed;fillColor=#fff2cc;strokeColor=#d6b656;" vertex="1" parent="1">
          <mxGeometry x="-1489" y="2761" width="12" height="12" as="geometry" />
        </mxCell>
        <mxCell id="enEflHNbiE4KMbk-d4w2-284" value="" style="rounded=1;whiteSpace=wrap;html=1;dashed=1;" vertex="1" parent="1">
          <mxGeometry x="-1498" y="2816" width="111" height="20" as="geometry" />
        </mxCell>
        <mxCell id="enEflHNbiE4KMbk-d4w2-285" value="" style="ellipse;whiteSpace=wrap;html=1;aspect=fixed;fillColor=#fff2cc;strokeColor=#d6b656;" vertex="1" parent="1">
          <mxGeometry x="-1409" y="2821" width="12" height="12" as="geometry" />
        </mxCell>
        <mxCell id="enEflHNbiE4KMbk-d4w2-286" value="" style="ellipse;whiteSpace=wrap;html=1;aspect=fixed;fillColor=#fff2cc;strokeColor=#d6b656;" vertex="1" parent="1">
          <mxGeometry x="-1429" y="2821" width="12" height="12" as="geometry" />
        </mxCell>
        <mxCell id="enEflHNbiE4KMbk-d4w2-287" value="" style="ellipse;whiteSpace=wrap;html=1;aspect=fixed;fillColor=#fff2cc;strokeColor=#d6b656;" vertex="1" parent="1">
          <mxGeometry x="-1449" y="2821" width="12" height="12" as="geometry" />
        </mxCell>
        <mxCell id="enEflHNbiE4KMbk-d4w2-288" value="" style="ellipse;whiteSpace=wrap;html=1;aspect=fixed;fillColor=#fff2cc;strokeColor=#d6b656;" vertex="1" parent="1">
          <mxGeometry x="-1469" y="2821" width="12" height="12" as="geometry" />
        </mxCell>
        <mxCell id="enEflHNbiE4KMbk-d4w2-289" value="" style="ellipse;whiteSpace=wrap;html=1;aspect=fixed;fillColor=#fff2cc;strokeColor=#d6b656;" vertex="1" parent="1">
          <mxGeometry x="-1489" y="2821" width="12" height="12" as="geometry" />
        </mxCell>
        <mxCell id="enEflHNbiE4KMbk-d4w2-290" style="edgeStyle=orthogonalEdgeStyle;rounded=0;orthogonalLoop=1;jettySize=auto;html=1;exitX=0.5;exitY=0;exitDx=0;exitDy=0;endSize=1;" edge="1" parent="1">
          <mxGeometry relative="1" as="geometry">
            <mxPoint x="-1442.5" y="2845" as="sourcePoint" />
            <mxPoint x="-1443" y="2837" as="targetPoint" />
            <Array as="points">
              <mxPoint x="-1442" y="2840" />
              <mxPoint x="-1443" y="2840" />
            </Array>
          </mxGeometry>
        </mxCell>
        <mxCell id="enEflHNbiE4KMbk-d4w2-291" value="" style="rounded=1;whiteSpace=wrap;html=1;dashed=1;" vertex="1" parent="1">
          <mxGeometry x="-1498" y="2846" width="111" height="20" as="geometry" />
        </mxCell>
        <mxCell id="enEflHNbiE4KMbk-d4w2-292" value="" style="ellipse;whiteSpace=wrap;html=1;aspect=fixed;fillColor=#fff2cc;strokeColor=#d6b656;" vertex="1" parent="1">
          <mxGeometry x="-1409" y="2851" width="12" height="12" as="geometry" />
        </mxCell>
        <mxCell id="enEflHNbiE4KMbk-d4w2-293" value="" style="ellipse;whiteSpace=wrap;html=1;aspect=fixed;fillColor=#fff2cc;strokeColor=#d6b656;" vertex="1" parent="1">
          <mxGeometry x="-1429" y="2851" width="12" height="12" as="geometry" />
        </mxCell>
        <mxCell id="enEflHNbiE4KMbk-d4w2-294" value="" style="ellipse;whiteSpace=wrap;html=1;aspect=fixed;fillColor=#fff2cc;strokeColor=#d6b656;" vertex="1" parent="1">
          <mxGeometry x="-1449" y="2851" width="12" height="12" as="geometry" />
        </mxCell>
        <mxCell id="enEflHNbiE4KMbk-d4w2-295" value="" style="ellipse;whiteSpace=wrap;html=1;aspect=fixed;fillColor=#fff2cc;strokeColor=#d6b656;" vertex="1" parent="1">
          <mxGeometry x="-1469" y="2851" width="12" height="12" as="geometry" />
        </mxCell>
        <mxCell id="enEflHNbiE4KMbk-d4w2-296" value="" style="ellipse;whiteSpace=wrap;html=1;aspect=fixed;fillColor=#fff2cc;strokeColor=#d6b656;" vertex="1" parent="1">
          <mxGeometry x="-1489" y="2851" width="12" height="12" as="geometry" />
        </mxCell>
        <mxCell id="enEflHNbiE4KMbk-d4w2-297" style="edgeStyle=orthogonalEdgeStyle;rounded=0;orthogonalLoop=1;jettySize=auto;html=1;exitX=0.5;exitY=0;exitDx=0;exitDy=0;endSize=1;" edge="1" parent="1">
          <mxGeometry relative="1" as="geometry">
            <mxPoint x="-1422" y="2813" as="sourcePoint" />
            <mxPoint x="-1422" y="2806" as="targetPoint" />
          </mxGeometry>
        </mxCell>
        <mxCell id="enEflHNbiE4KMbk-d4w2-298" style="edgeStyle=orthogonalEdgeStyle;rounded=0;orthogonalLoop=1;jettySize=auto;html=1;exitX=0.5;exitY=0;exitDx=0;exitDy=0;endSize=1;" edge="1" parent="1">
          <mxGeometry relative="1" as="geometry">
            <mxPoint x="-1422" y="2786" as="sourcePoint" />
            <mxPoint x="-1422" y="2779" as="targetPoint" />
          </mxGeometry>
        </mxCell>
        <mxCell id="enEflHNbiE4KMbk-d4w2-299" value="..." style="text;html=1;strokeColor=none;fillColor=none;align=center;verticalAlign=middle;whiteSpace=wrap;rounded=0;" vertex="1" parent="1">
          <mxGeometry x="-1438.5" y="2786" width="33" height="11" as="geometry" />
        </mxCell>
        <mxCell id="enEflHNbiE4KMbk-d4w2-300" style="edgeStyle=orthogonalEdgeStyle;rounded=0;orthogonalLoop=1;jettySize=auto;html=1;exitX=0.5;exitY=0;exitDx=0;exitDy=0;endSize=1;" edge="1" parent="1">
          <mxGeometry relative="1" as="geometry">
            <mxPoint x="-1442.5" y="2875" as="sourcePoint" />
            <mxPoint x="-1443" y="2867" as="targetPoint" />
            <Array as="points">
              <mxPoint x="-1442" y="2870" />
              <mxPoint x="-1443" y="2870" />
            </Array>
          </mxGeometry>
        </mxCell>
        <mxCell id="enEflHNbiE4KMbk-d4w2-301" value="" style="rounded=1;whiteSpace=wrap;html=1;dashed=1;" vertex="1" parent="1">
          <mxGeometry x="-1498" y="2876" width="111" height="20" as="geometry" />
        </mxCell>
        <mxCell id="enEflHNbiE4KMbk-d4w2-302" value="" style="ellipse;whiteSpace=wrap;html=1;aspect=fixed;fillColor=#fff2cc;strokeColor=#d6b656;" vertex="1" parent="1">
          <mxGeometry x="-1409" y="2881" width="12" height="12" as="geometry" />
        </mxCell>
        <mxCell id="enEflHNbiE4KMbk-d4w2-303" value="" style="ellipse;whiteSpace=wrap;html=1;aspect=fixed;fillColor=#fff2cc;strokeColor=#d6b656;" vertex="1" parent="1">
          <mxGeometry x="-1429" y="2881" width="12" height="12" as="geometry" />
        </mxCell>
        <mxCell id="enEflHNbiE4KMbk-d4w2-304" value="" style="ellipse;whiteSpace=wrap;html=1;aspect=fixed;fillColor=#fff2cc;strokeColor=#d6b656;" vertex="1" parent="1">
          <mxGeometry x="-1449" y="2881" width="12" height="12" as="geometry" />
        </mxCell>
        <mxCell id="enEflHNbiE4KMbk-d4w2-305" value="" style="ellipse;whiteSpace=wrap;html=1;aspect=fixed;fillColor=#fff2cc;strokeColor=#d6b656;" vertex="1" parent="1">
          <mxGeometry x="-1469" y="2881" width="12" height="12" as="geometry" />
        </mxCell>
        <mxCell id="enEflHNbiE4KMbk-d4w2-306" value="" style="ellipse;whiteSpace=wrap;html=1;aspect=fixed;fillColor=#fff2cc;strokeColor=#d6b656;" vertex="1" parent="1">
          <mxGeometry x="-1489" y="2881" width="12" height="12" as="geometry" />
        </mxCell>
        <mxCell id="enEflHNbiE4KMbk-d4w2-307" value="&lt;font style=&quot;font-size: 10px;&quot;&gt;Deep net&lt;/font&gt;" style="text;html=1;strokeColor=none;fillColor=none;align=center;verticalAlign=middle;whiteSpace=wrap;rounded=0;" vertex="1" parent="1">
          <mxGeometry x="-1500" y="2786" width="56" height="22" as="geometry" />
        </mxCell>
        <mxCell id="enEflHNbiE4KMbk-d4w2-308" value="&lt;font style=&quot;font-size: 12px;&quot;&gt;BN+Mul&lt;/font&gt;" style="rounded=1;whiteSpace=wrap;html=1;labelBorderColor=none;strokeColor=#000000;fontSize=14;fontColor=#000000;fillColor=none;" vertex="1" parent="1">
          <mxGeometry x="-1435" y="2690" width="124" height="20" as="geometry" />
        </mxCell>
        <mxCell id="enEflHNbiE4KMbk-d4w2-331" value="" style="rounded=0;whiteSpace=wrap;html=1;fillColor=#dae8fc;gradientDirection=north;strokeColor=#000000;" vertex="1" parent="1">
          <mxGeometry x="-1154" y="2978.25" width="10" height="10" as="geometry" />
        </mxCell>
        <mxCell id="enEflHNbiE4KMbk-d4w2-332" value="" style="rounded=0;whiteSpace=wrap;html=1;fillColor=#f5f5f5;gradientDirection=north;strokeColor=#000000;fontColor=#333333;" vertex="1" parent="1">
          <mxGeometry x="-1154" y="2988.25" width="10" height="10" as="geometry" />
        </mxCell>
        <mxCell id="enEflHNbiE4KMbk-d4w2-333" value="" style="rounded=0;whiteSpace=wrap;html=1;fillColor=#fff2cc;gradientDirection=north;strokeColor=#000000;" vertex="1" parent="1">
          <mxGeometry x="-1154" y="2998.25" width="10" height="10" as="geometry" />
        </mxCell>
        <mxCell id="enEflHNbiE4KMbk-d4w2-334" value="" style="rounded=0;whiteSpace=wrap;html=1;fillColor=#D9D9D9;gradientColor=none;gradientDirection=north;strokeColor=#000000;" vertex="1" parent="1">
          <mxGeometry x="-1154" y="3008.25" width="10" height="10" as="geometry" />
        </mxCell>
        <mxCell id="enEflHNbiE4KMbk-d4w2-335" value="" style="rounded=0;whiteSpace=wrap;html=1;fillColor=#666666;gradientColor=none;gradientDirection=north;strokeColor=#000000;" vertex="1" parent="1">
          <mxGeometry x="-1134" y="2978.25" width="10" height="10" as="geometry" />
        </mxCell>
        <mxCell id="enEflHNbiE4KMbk-d4w2-336" value="" style="rounded=0;whiteSpace=wrap;html=1;fillColor=#CCCCFF;gradientColor=none;gradientDirection=north;strokeColor=#000000;" vertex="1" parent="1">
          <mxGeometry x="-1134" y="2988.25" width="10" height="10" as="geometry" />
        </mxCell>
        <mxCell id="enEflHNbiE4KMbk-d4w2-337" value="" style="rounded=0;whiteSpace=wrap;html=1;fillColor=#f5f5f5;gradientDirection=north;fontColor=#333333;strokeColor=#000000;" vertex="1" parent="1">
          <mxGeometry x="-1134" y="2998.25" width="10" height="10" as="geometry" />
        </mxCell>
        <mxCell id="enEflHNbiE4KMbk-d4w2-338" value="" style="rounded=0;whiteSpace=wrap;html=1;fillColor=#D9D9D9;gradientColor=none;gradientDirection=north;strokeColor=#000000;" vertex="1" parent="1">
          <mxGeometry x="-1134" y="3008.25" width="10" height="10" as="geometry" />
        </mxCell>
        <mxCell id="enEflHNbiE4KMbk-d4w2-453" style="edgeStyle=orthogonalEdgeStyle;rounded=0;orthogonalLoop=1;jettySize=auto;html=1;exitX=0.5;exitY=0;exitDx=0;exitDy=0;dashed=1;" edge="1" parent="1" source="enEflHNbiE4KMbk-d4w2-340">
          <mxGeometry relative="1" as="geometry">
            <mxPoint x="-1170" y="2910.0000000000005" as="targetPoint" />
          </mxGeometry>
        </mxCell>
        <mxCell id="enEflHNbiE4KMbk-d4w2-340" value="concat" style="rounded=1;whiteSpace=wrap;html=1;fillColor=#FFFFFF;gradientColor=none;gradientDirection=north;" vertex="1" parent="1">
          <mxGeometry x="-1158.5" y="2940.25" width="84" height="20" as="geometry" />
        </mxCell>
        <mxCell id="enEflHNbiE4KMbk-d4w2-341" value="" style="shape=curlyBracket;whiteSpace=wrap;html=1;rounded=1;flipH=1;fillColor=#FFFFFF;gradientColor=none;gradientDirection=north;rotation=-90;" vertex="1" parent="1">
          <mxGeometry x="-1126.25" y="2905" width="20" height="128.5" as="geometry" />
        </mxCell>
        <mxCell id="enEflHNbiE4KMbk-d4w2-342" value="" style="rounded=0;whiteSpace=wrap;html=1;fillColor=#f5f5f5;gradientDirection=north;strokeColor=#000000;fontColor=#333333;" vertex="1" parent="1">
          <mxGeometry x="-1174" y="2978.25" width="10" height="10" as="geometry" />
        </mxCell>
        <mxCell id="enEflHNbiE4KMbk-d4w2-343" value="" style="rounded=0;whiteSpace=wrap;html=1;fillColor=#D9D9D9;gradientColor=none;gradientDirection=north;strokeColor=#000000;" vertex="1" parent="1">
          <mxGeometry x="-1174" y="2988.25" width="10" height="10" as="geometry" />
        </mxCell>
        <mxCell id="enEflHNbiE4KMbk-d4w2-344" value="" style="rounded=0;whiteSpace=wrap;html=1;fillColor=#4D4D4D;gradientColor=none;gradientDirection=north;strokeColor=#000000;" vertex="1" parent="1">
          <mxGeometry x="-1174" y="2998.25" width="10" height="10" as="geometry" />
        </mxCell>
        <mxCell id="enEflHNbiE4KMbk-d4w2-345" value="" style="rounded=0;whiteSpace=wrap;html=1;fillColor=#D9D9D9;gradientColor=none;gradientDirection=north;strokeColor=#000000;" vertex="1" parent="1">
          <mxGeometry x="-1174" y="3008.25" width="10" height="10" as="geometry" />
        </mxCell>
        <mxCell id="enEflHNbiE4KMbk-d4w2-346" value="" style="ellipse;whiteSpace=wrap;html=1;aspect=fixed;" vertex="1" parent="1">
          <mxGeometry x="-1176" y="3031.25" width="14" height="14" as="geometry" />
        </mxCell>
        <mxCell id="enEflHNbiE4KMbk-d4w2-347" value="" style="ellipse;whiteSpace=wrap;html=1;aspect=fixed;" vertex="1" parent="1">
          <mxGeometry x="-1156" y="3031.25" width="14" height="14" as="geometry" />
        </mxCell>
        <mxCell id="enEflHNbiE4KMbk-d4w2-348" style="edgeStyle=orthogonalEdgeStyle;rounded=0;orthogonalLoop=1;jettySize=auto;html=1;exitX=0.5;exitY=0;exitDx=0;exitDy=0;entryX=0.5;entryY=1;entryDx=0;entryDy=0;endSize=3;strokeColor=#000000;" edge="1" parent="1" source="enEflHNbiE4KMbk-d4w2-349" target="enEflHNbiE4KMbk-d4w2-338">
          <mxGeometry relative="1" as="geometry" />
        </mxCell>
        <mxCell id="enEflHNbiE4KMbk-d4w2-349" value="" style="ellipse;whiteSpace=wrap;html=1;aspect=fixed;" vertex="1" parent="1">
          <mxGeometry x="-1136" y="3031.25" width="14" height="14" as="geometry" />
        </mxCell>
        <mxCell id="enEflHNbiE4KMbk-d4w2-350" style="edgeStyle=orthogonalEdgeStyle;rounded=0;orthogonalLoop=1;jettySize=auto;html=1;exitX=0.5;exitY=0;exitDx=0;exitDy=0;entryX=0.5;entryY=1;entryDx=0;entryDy=0;endSize=3;strokeColor=#000000;" edge="1" parent="1">
          <mxGeometry relative="1" as="geometry">
            <mxPoint x="-1149" y="3031.25" as="sourcePoint" />
            <mxPoint x="-1149" y="3018.25" as="targetPoint" />
          </mxGeometry>
        </mxCell>
        <mxCell id="enEflHNbiE4KMbk-d4w2-351" style="edgeStyle=orthogonalEdgeStyle;rounded=0;orthogonalLoop=1;jettySize=auto;html=1;exitX=0.5;exitY=0;exitDx=0;exitDy=0;entryX=0.5;entryY=1;entryDx=0;entryDy=0;endSize=3;strokeColor=#000000;" edge="1" parent="1">
          <mxGeometry relative="1" as="geometry">
            <mxPoint x="-1169" y="3031.25" as="sourcePoint" />
            <mxPoint x="-1169" y="3018.25" as="targetPoint" />
          </mxGeometry>
        </mxCell>
        <mxCell id="enEflHNbiE4KMbk-d4w2-352" value="Context Features" style="text;html=1;strokeColor=none;fillColor=none;align=center;verticalAlign=middle;whiteSpace=wrap;rounded=0;fontSize=9;" vertex="1" parent="1">
          <mxGeometry x="-1165.5" y="3048.25" width="115" height="30" as="geometry" />
        </mxCell>
        <mxCell id="enEflHNbiE4KMbk-d4w2-353" value="" style="rounded=0;whiteSpace=wrap;html=1;fillColor=#dae8fc;gradientDirection=north;strokeColor=#000000;" vertex="1" parent="1">
          <mxGeometry x="-1090" y="2978.25" width="10" height="10" as="geometry" />
        </mxCell>
        <mxCell id="enEflHNbiE4KMbk-d4w2-354" value="" style="rounded=0;whiteSpace=wrap;html=1;fillColor=#f5f5f5;gradientDirection=north;strokeColor=#000000;fontColor=#333333;" vertex="1" parent="1">
          <mxGeometry x="-1090" y="2988.25" width="10" height="10" as="geometry" />
        </mxCell>
        <mxCell id="enEflHNbiE4KMbk-d4w2-355" value="" style="rounded=0;whiteSpace=wrap;html=1;fillColor=#fff2cc;gradientDirection=north;strokeColor=#000000;" vertex="1" parent="1">
          <mxGeometry x="-1090" y="2998.25" width="10" height="10" as="geometry" />
        </mxCell>
        <mxCell id="enEflHNbiE4KMbk-d4w2-356" value="" style="rounded=0;whiteSpace=wrap;html=1;fillColor=#D9D9D9;gradientColor=none;gradientDirection=north;strokeColor=#000000;" vertex="1" parent="1">
          <mxGeometry x="-1090" y="3008.25" width="10" height="10" as="geometry" />
        </mxCell>
        <mxCell id="enEflHNbiE4KMbk-d4w2-357" value="" style="rounded=0;whiteSpace=wrap;html=1;fillColor=#666666;gradientColor=none;gradientDirection=north;strokeColor=#000000;" vertex="1" parent="1">
          <mxGeometry x="-1070" y="2978.25" width="10" height="10" as="geometry" />
        </mxCell>
        <mxCell id="enEflHNbiE4KMbk-d4w2-358" value="" style="rounded=0;whiteSpace=wrap;html=1;fillColor=#CCCCFF;gradientColor=none;gradientDirection=north;strokeColor=#000000;" vertex="1" parent="1">
          <mxGeometry x="-1070" y="2988.25" width="10" height="10" as="geometry" />
        </mxCell>
        <mxCell id="enEflHNbiE4KMbk-d4w2-359" value="" style="rounded=0;whiteSpace=wrap;html=1;fillColor=#f5f5f5;gradientDirection=north;fontColor=#333333;strokeColor=#000000;" vertex="1" parent="1">
          <mxGeometry x="-1070" y="2998.25" width="10" height="10" as="geometry" />
        </mxCell>
        <mxCell id="enEflHNbiE4KMbk-d4w2-360" value="" style="rounded=0;whiteSpace=wrap;html=1;fillColor=#D9D9D9;gradientColor=none;gradientDirection=north;strokeColor=#000000;" vertex="1" parent="1">
          <mxGeometry x="-1070" y="3008.25" width="10" height="10" as="geometry" />
        </mxCell>
        <mxCell id="enEflHNbiE4KMbk-d4w2-361" value="" style="rounded=0;whiteSpace=wrap;html=1;fillColor=#f5f5f5;gradientDirection=north;strokeColor=#000000;fontColor=#333333;" vertex="1" parent="1">
          <mxGeometry x="-1110" y="2978.25" width="10" height="10" as="geometry" />
        </mxCell>
        <mxCell id="enEflHNbiE4KMbk-d4w2-362" value="" style="rounded=0;whiteSpace=wrap;html=1;fillColor=#D9D9D9;gradientColor=none;gradientDirection=north;strokeColor=#000000;" vertex="1" parent="1">
          <mxGeometry x="-1110" y="2988.25" width="10" height="10" as="geometry" />
        </mxCell>
        <mxCell id="enEflHNbiE4KMbk-d4w2-363" value="" style="rounded=0;whiteSpace=wrap;html=1;fillColor=#4D4D4D;gradientColor=none;gradientDirection=north;strokeColor=#000000;" vertex="1" parent="1">
          <mxGeometry x="-1110" y="2998.25" width="10" height="10" as="geometry" />
        </mxCell>
        <mxCell id="enEflHNbiE4KMbk-d4w2-364" value="" style="rounded=0;whiteSpace=wrap;html=1;fillColor=#D9D9D9;gradientColor=none;gradientDirection=north;strokeColor=#000000;" vertex="1" parent="1">
          <mxGeometry x="-1110" y="3008.25" width="10" height="10" as="geometry" />
        </mxCell>
        <mxCell id="enEflHNbiE4KMbk-d4w2-365" value="" style="ellipse;whiteSpace=wrap;html=1;aspect=fixed;" vertex="1" parent="1">
          <mxGeometry x="-1112" y="3031.25" width="14" height="14" as="geometry" />
        </mxCell>
        <mxCell id="enEflHNbiE4KMbk-d4w2-366" value="" style="ellipse;whiteSpace=wrap;html=1;aspect=fixed;" vertex="1" parent="1">
          <mxGeometry x="-1092" y="3031.25" width="14" height="14" as="geometry" />
        </mxCell>
        <mxCell id="enEflHNbiE4KMbk-d4w2-367" style="edgeStyle=orthogonalEdgeStyle;rounded=0;orthogonalLoop=1;jettySize=auto;html=1;exitX=0.5;exitY=0;exitDx=0;exitDy=0;entryX=0.5;entryY=1;entryDx=0;entryDy=0;endSize=3;strokeColor=#000000;" edge="1" parent="1" source="enEflHNbiE4KMbk-d4w2-368" target="enEflHNbiE4KMbk-d4w2-360">
          <mxGeometry relative="1" as="geometry" />
        </mxCell>
        <mxCell id="enEflHNbiE4KMbk-d4w2-368" value="" style="ellipse;whiteSpace=wrap;html=1;aspect=fixed;" vertex="1" parent="1">
          <mxGeometry x="-1072" y="3031.25" width="14" height="14" as="geometry" />
        </mxCell>
        <mxCell id="enEflHNbiE4KMbk-d4w2-369" style="edgeStyle=orthogonalEdgeStyle;rounded=0;orthogonalLoop=1;jettySize=auto;html=1;exitX=0.5;exitY=0;exitDx=0;exitDy=0;entryX=0.5;entryY=1;entryDx=0;entryDy=0;endSize=3;strokeColor=#000000;" edge="1" parent="1">
          <mxGeometry relative="1" as="geometry">
            <mxPoint x="-1085" y="3031.25" as="sourcePoint" />
            <mxPoint x="-1085" y="3018.25" as="targetPoint" />
          </mxGeometry>
        </mxCell>
        <mxCell id="enEflHNbiE4KMbk-d4w2-370" style="edgeStyle=orthogonalEdgeStyle;rounded=0;orthogonalLoop=1;jettySize=auto;html=1;exitX=0.5;exitY=0;exitDx=0;exitDy=0;entryX=0.5;entryY=1;entryDx=0;entryDy=0;endSize=3;strokeColor=#000000;" edge="1" parent="1">
          <mxGeometry relative="1" as="geometry">
            <mxPoint x="-1105" y="3031.25" as="sourcePoint" />
            <mxPoint x="-1105" y="3018.25" as="targetPoint" />
          </mxGeometry>
        </mxCell>
        <mxCell id="enEflHNbiE4KMbk-d4w2-371" value="" style="rounded=0;whiteSpace=wrap;html=1;fillColor=#dae8fc;gradientDirection=north;strokeColor=#000000;" vertex="1" parent="1">
          <mxGeometry x="-1317" y="2978.25" width="10" height="10" as="geometry" />
        </mxCell>
        <mxCell id="enEflHNbiE4KMbk-d4w2-372" value="" style="rounded=0;whiteSpace=wrap;html=1;fillColor=#f5f5f5;gradientDirection=north;strokeColor=#000000;fontColor=#333333;" vertex="1" parent="1">
          <mxGeometry x="-1317" y="2988.25" width="10" height="10" as="geometry" />
        </mxCell>
        <mxCell id="enEflHNbiE4KMbk-d4w2-373" value="" style="rounded=0;whiteSpace=wrap;html=1;fillColor=#fff2cc;gradientDirection=north;strokeColor=#000000;" vertex="1" parent="1">
          <mxGeometry x="-1317" y="2998.25" width="10" height="10" as="geometry" />
        </mxCell>
        <mxCell id="enEflHNbiE4KMbk-d4w2-374" value="" style="rounded=0;whiteSpace=wrap;html=1;fillColor=#D9D9D9;gradientColor=none;gradientDirection=north;strokeColor=#000000;" vertex="1" parent="1">
          <mxGeometry x="-1317" y="3008.25" width="10" height="10" as="geometry" />
        </mxCell>
        <mxCell id="enEflHNbiE4KMbk-d4w2-375" value="" style="rounded=0;whiteSpace=wrap;html=1;fillColor=#666666;gradientColor=none;gradientDirection=north;strokeColor=#000000;" vertex="1" parent="1">
          <mxGeometry x="-1297" y="2978.25" width="10" height="10" as="geometry" />
        </mxCell>
        <mxCell id="enEflHNbiE4KMbk-d4w2-376" value="" style="rounded=0;whiteSpace=wrap;html=1;fillColor=#CCCCFF;gradientColor=none;gradientDirection=north;strokeColor=#000000;" vertex="1" parent="1">
          <mxGeometry x="-1297" y="2988.25" width="10" height="10" as="geometry" />
        </mxCell>
        <mxCell id="enEflHNbiE4KMbk-d4w2-377" value="" style="rounded=0;whiteSpace=wrap;html=1;fillColor=#f5f5f5;gradientDirection=north;fontColor=#333333;strokeColor=#000000;" vertex="1" parent="1">
          <mxGeometry x="-1297" y="2998.25" width="10" height="10" as="geometry" />
        </mxCell>
        <mxCell id="enEflHNbiE4KMbk-d4w2-378" value="" style="rounded=0;whiteSpace=wrap;html=1;fillColor=#D9D9D9;gradientColor=none;gradientDirection=north;strokeColor=#000000;" vertex="1" parent="1">
          <mxGeometry x="-1297" y="3008.25" width="10" height="10" as="geometry" />
        </mxCell>
        <mxCell id="enEflHNbiE4KMbk-d4w2-379" style="edgeStyle=orthogonalEdgeStyle;rounded=0;orthogonalLoop=1;jettySize=auto;html=1;exitX=0.5;exitY=0;exitDx=0;exitDy=0;dashed=1;" edge="1" parent="1" source="enEflHNbiE4KMbk-d4w2-380">
          <mxGeometry relative="1" as="geometry">
            <mxPoint x="-1320" y="2900" as="targetPoint" />
          </mxGeometry>
        </mxCell>
        <mxCell id="enEflHNbiE4KMbk-d4w2-454" style="edgeStyle=orthogonalEdgeStyle;rounded=0;orthogonalLoop=1;jettySize=auto;html=1;exitX=0.5;exitY=0;exitDx=0;exitDy=0;dashed=1;" edge="1" parent="1" source="enEflHNbiE4KMbk-d4w2-380">
          <mxGeometry relative="1" as="geometry">
            <mxPoint x="-1110" y="2910" as="targetPoint" />
            <Array as="points">
              <mxPoint x="-1279" y="2930" />
              <mxPoint x="-1174" y="2930" />
              <mxPoint x="-1174" y="2931" />
              <mxPoint x="-1110" y="2931" />
            </Array>
          </mxGeometry>
        </mxCell>
        <mxCell id="enEflHNbiE4KMbk-d4w2-380" value="concat" style="rounded=1;whiteSpace=wrap;html=1;fillColor=#FFFFFF;gradientColor=none;gradientDirection=north;" vertex="1" parent="1">
          <mxGeometry x="-1321.5" y="2940.25" width="84" height="20" as="geometry" />
        </mxCell>
        <mxCell id="enEflHNbiE4KMbk-d4w2-381" value="" style="shape=curlyBracket;whiteSpace=wrap;html=1;rounded=1;flipH=1;fillColor=#FFFFFF;gradientColor=none;gradientDirection=north;rotation=-90;" vertex="1" parent="1">
          <mxGeometry x="-1289.25" y="2905" width="20" height="128.5" as="geometry" />
        </mxCell>
        <mxCell id="enEflHNbiE4KMbk-d4w2-382" value="" style="rounded=0;whiteSpace=wrap;html=1;fillColor=#f5f5f5;gradientDirection=north;strokeColor=#000000;fontColor=#333333;" vertex="1" parent="1">
          <mxGeometry x="-1337" y="2978.25" width="10" height="10" as="geometry" />
        </mxCell>
        <mxCell id="enEflHNbiE4KMbk-d4w2-383" value="" style="rounded=0;whiteSpace=wrap;html=1;fillColor=#D9D9D9;gradientColor=none;gradientDirection=north;strokeColor=#000000;" vertex="1" parent="1">
          <mxGeometry x="-1337" y="2988.25" width="10" height="10" as="geometry" />
        </mxCell>
        <mxCell id="enEflHNbiE4KMbk-d4w2-384" value="" style="rounded=0;whiteSpace=wrap;html=1;fillColor=#4D4D4D;gradientColor=none;gradientDirection=north;strokeColor=#000000;" vertex="1" parent="1">
          <mxGeometry x="-1337" y="2998.25" width="10" height="10" as="geometry" />
        </mxCell>
        <mxCell id="enEflHNbiE4KMbk-d4w2-385" value="" style="rounded=0;whiteSpace=wrap;html=1;fillColor=#D9D9D9;gradientColor=none;gradientDirection=north;strokeColor=#000000;" vertex="1" parent="1">
          <mxGeometry x="-1337" y="3008.25" width="10" height="10" as="geometry" />
        </mxCell>
        <mxCell id="enEflHNbiE4KMbk-d4w2-386" value="" style="ellipse;whiteSpace=wrap;html=1;aspect=fixed;" vertex="1" parent="1">
          <mxGeometry x="-1339" y="3031.25" width="14" height="14" as="geometry" />
        </mxCell>
        <mxCell id="enEflHNbiE4KMbk-d4w2-387" value="" style="ellipse;whiteSpace=wrap;html=1;aspect=fixed;" vertex="1" parent="1">
          <mxGeometry x="-1319" y="3031.25" width="14" height="14" as="geometry" />
        </mxCell>
        <mxCell id="enEflHNbiE4KMbk-d4w2-388" style="edgeStyle=orthogonalEdgeStyle;rounded=0;orthogonalLoop=1;jettySize=auto;html=1;exitX=0.5;exitY=0;exitDx=0;exitDy=0;entryX=0.5;entryY=1;entryDx=0;entryDy=0;endSize=3;strokeColor=#000000;" edge="1" parent="1" source="enEflHNbiE4KMbk-d4w2-389" target="enEflHNbiE4KMbk-d4w2-378">
          <mxGeometry relative="1" as="geometry" />
        </mxCell>
        <mxCell id="enEflHNbiE4KMbk-d4w2-389" value="" style="ellipse;whiteSpace=wrap;html=1;aspect=fixed;" vertex="1" parent="1">
          <mxGeometry x="-1299" y="3031.25" width="14" height="14" as="geometry" />
        </mxCell>
        <mxCell id="enEflHNbiE4KMbk-d4w2-390" style="edgeStyle=orthogonalEdgeStyle;rounded=0;orthogonalLoop=1;jettySize=auto;html=1;exitX=0.5;exitY=0;exitDx=0;exitDy=0;entryX=0.5;entryY=1;entryDx=0;entryDy=0;endSize=3;strokeColor=#000000;" edge="1" parent="1">
          <mxGeometry relative="1" as="geometry">
            <mxPoint x="-1312" y="3031.25" as="sourcePoint" />
            <mxPoint x="-1312" y="3018.25" as="targetPoint" />
          </mxGeometry>
        </mxCell>
        <mxCell id="enEflHNbiE4KMbk-d4w2-391" style="edgeStyle=orthogonalEdgeStyle;rounded=0;orthogonalLoop=1;jettySize=auto;html=1;exitX=0.5;exitY=0;exitDx=0;exitDy=0;entryX=0.5;entryY=1;entryDx=0;entryDy=0;endSize=3;strokeColor=#000000;" edge="1" parent="1">
          <mxGeometry relative="1" as="geometry">
            <mxPoint x="-1332" y="3031.25" as="sourcePoint" />
            <mxPoint x="-1332" y="3018.25" as="targetPoint" />
          </mxGeometry>
        </mxCell>
        <mxCell id="enEflHNbiE4KMbk-d4w2-392" value="Item Features" style="text;html=1;strokeColor=none;fillColor=none;align=center;verticalAlign=middle;whiteSpace=wrap;rounded=0;fontSize=9;" vertex="1" parent="1">
          <mxGeometry x="-1328.5" y="3048.25" width="115" height="30" as="geometry" />
        </mxCell>
        <mxCell id="enEflHNbiE4KMbk-d4w2-393" value="" style="rounded=0;whiteSpace=wrap;html=1;fillColor=#dae8fc;gradientDirection=north;strokeColor=#000000;" vertex="1" parent="1">
          <mxGeometry x="-1253" y="2978.25" width="10" height="10" as="geometry" />
        </mxCell>
        <mxCell id="enEflHNbiE4KMbk-d4w2-394" value="" style="rounded=0;whiteSpace=wrap;html=1;fillColor=#f5f5f5;gradientDirection=north;strokeColor=#000000;fontColor=#333333;" vertex="1" parent="1">
          <mxGeometry x="-1253" y="2988.25" width="10" height="10" as="geometry" />
        </mxCell>
        <mxCell id="enEflHNbiE4KMbk-d4w2-395" value="" style="rounded=0;whiteSpace=wrap;html=1;fillColor=#fff2cc;gradientDirection=north;strokeColor=#000000;" vertex="1" parent="1">
          <mxGeometry x="-1253" y="2998.25" width="10" height="10" as="geometry" />
        </mxCell>
        <mxCell id="enEflHNbiE4KMbk-d4w2-396" value="" style="rounded=0;whiteSpace=wrap;html=1;fillColor=#D9D9D9;gradientColor=none;gradientDirection=north;strokeColor=#000000;" vertex="1" parent="1">
          <mxGeometry x="-1253" y="3008.25" width="10" height="10" as="geometry" />
        </mxCell>
        <mxCell id="enEflHNbiE4KMbk-d4w2-397" value="" style="rounded=0;whiteSpace=wrap;html=1;fillColor=#666666;gradientColor=none;gradientDirection=north;strokeColor=#000000;" vertex="1" parent="1">
          <mxGeometry x="-1233" y="2978.25" width="10" height="10" as="geometry" />
        </mxCell>
        <mxCell id="enEflHNbiE4KMbk-d4w2-398" value="" style="rounded=0;whiteSpace=wrap;html=1;fillColor=#CCCCFF;gradientColor=none;gradientDirection=north;strokeColor=#000000;" vertex="1" parent="1">
          <mxGeometry x="-1233" y="2988.25" width="10" height="10" as="geometry" />
        </mxCell>
        <mxCell id="enEflHNbiE4KMbk-d4w2-399" value="" style="rounded=0;whiteSpace=wrap;html=1;fillColor=#f5f5f5;gradientDirection=north;fontColor=#333333;strokeColor=#000000;" vertex="1" parent="1">
          <mxGeometry x="-1233" y="2998.25" width="10" height="10" as="geometry" />
        </mxCell>
        <mxCell id="enEflHNbiE4KMbk-d4w2-400" value="" style="rounded=0;whiteSpace=wrap;html=1;fillColor=#D9D9D9;gradientColor=none;gradientDirection=north;strokeColor=#000000;" vertex="1" parent="1">
          <mxGeometry x="-1233" y="3008.25" width="10" height="10" as="geometry" />
        </mxCell>
        <mxCell id="enEflHNbiE4KMbk-d4w2-401" value="" style="rounded=0;whiteSpace=wrap;html=1;fillColor=#f5f5f5;gradientDirection=north;strokeColor=#000000;fontColor=#333333;" vertex="1" parent="1">
          <mxGeometry x="-1273" y="2978.25" width="10" height="10" as="geometry" />
        </mxCell>
        <mxCell id="enEflHNbiE4KMbk-d4w2-402" value="" style="rounded=0;whiteSpace=wrap;html=1;fillColor=#D9D9D9;gradientColor=none;gradientDirection=north;strokeColor=#000000;" vertex="1" parent="1">
          <mxGeometry x="-1273" y="2988.25" width="10" height="10" as="geometry" />
        </mxCell>
        <mxCell id="enEflHNbiE4KMbk-d4w2-403" value="" style="rounded=0;whiteSpace=wrap;html=1;fillColor=#4D4D4D;gradientColor=none;gradientDirection=north;strokeColor=#000000;" vertex="1" parent="1">
          <mxGeometry x="-1273" y="2998.25" width="10" height="10" as="geometry" />
        </mxCell>
        <mxCell id="enEflHNbiE4KMbk-d4w2-404" value="" style="rounded=0;whiteSpace=wrap;html=1;fillColor=#D9D9D9;gradientColor=none;gradientDirection=north;strokeColor=#000000;" vertex="1" parent="1">
          <mxGeometry x="-1273" y="3008.25" width="10" height="10" as="geometry" />
        </mxCell>
        <mxCell id="enEflHNbiE4KMbk-d4w2-405" value="" style="ellipse;whiteSpace=wrap;html=1;aspect=fixed;" vertex="1" parent="1">
          <mxGeometry x="-1275" y="3031.25" width="14" height="14" as="geometry" />
        </mxCell>
        <mxCell id="enEflHNbiE4KMbk-d4w2-406" value="" style="ellipse;whiteSpace=wrap;html=1;aspect=fixed;" vertex="1" parent="1">
          <mxGeometry x="-1255" y="3031.25" width="14" height="14" as="geometry" />
        </mxCell>
        <mxCell id="enEflHNbiE4KMbk-d4w2-407" style="edgeStyle=orthogonalEdgeStyle;rounded=0;orthogonalLoop=1;jettySize=auto;html=1;exitX=0.5;exitY=0;exitDx=0;exitDy=0;entryX=0.5;entryY=1;entryDx=0;entryDy=0;endSize=3;strokeColor=#000000;" edge="1" parent="1" source="enEflHNbiE4KMbk-d4w2-408" target="enEflHNbiE4KMbk-d4w2-400">
          <mxGeometry relative="1" as="geometry" />
        </mxCell>
        <mxCell id="enEflHNbiE4KMbk-d4w2-408" value="" style="ellipse;whiteSpace=wrap;html=1;aspect=fixed;" vertex="1" parent="1">
          <mxGeometry x="-1235" y="3031.25" width="14" height="14" as="geometry" />
        </mxCell>
        <mxCell id="enEflHNbiE4KMbk-d4w2-409" style="edgeStyle=orthogonalEdgeStyle;rounded=0;orthogonalLoop=1;jettySize=auto;html=1;exitX=0.5;exitY=0;exitDx=0;exitDy=0;entryX=0.5;entryY=1;entryDx=0;entryDy=0;endSize=3;strokeColor=#000000;" edge="1" parent="1">
          <mxGeometry relative="1" as="geometry">
            <mxPoint x="-1248" y="3031.25" as="sourcePoint" />
            <mxPoint x="-1248" y="3018.25" as="targetPoint" />
          </mxGeometry>
        </mxCell>
        <mxCell id="enEflHNbiE4KMbk-d4w2-410" style="edgeStyle=orthogonalEdgeStyle;rounded=0;orthogonalLoop=1;jettySize=auto;html=1;exitX=0.5;exitY=0;exitDx=0;exitDy=0;entryX=0.5;entryY=1;entryDx=0;entryDy=0;endSize=3;strokeColor=#000000;" edge="1" parent="1">
          <mxGeometry relative="1" as="geometry">
            <mxPoint x="-1268" y="3031.25" as="sourcePoint" />
            <mxPoint x="-1268" y="3018.25" as="targetPoint" />
          </mxGeometry>
        </mxCell>
        <mxCell id="enEflHNbiE4KMbk-d4w2-411" value="" style="rounded=0;whiteSpace=wrap;html=1;fillColor=#dae8fc;gradientDirection=north;strokeColor=#000000;" vertex="1" parent="1">
          <mxGeometry x="-1482" y="2981.5" width="10" height="10" as="geometry" />
        </mxCell>
        <mxCell id="enEflHNbiE4KMbk-d4w2-412" value="" style="rounded=0;whiteSpace=wrap;html=1;fillColor=#f5f5f5;gradientDirection=north;strokeColor=#000000;fontColor=#333333;" vertex="1" parent="1">
          <mxGeometry x="-1482" y="2991.5" width="10" height="10" as="geometry" />
        </mxCell>
        <mxCell id="enEflHNbiE4KMbk-d4w2-413" value="" style="rounded=0;whiteSpace=wrap;html=1;fillColor=#fff2cc;gradientDirection=north;strokeColor=#000000;" vertex="1" parent="1">
          <mxGeometry x="-1482" y="3001.5" width="10" height="10" as="geometry" />
        </mxCell>
        <mxCell id="enEflHNbiE4KMbk-d4w2-414" value="" style="rounded=0;whiteSpace=wrap;html=1;fillColor=#D9D9D9;gradientColor=none;gradientDirection=north;strokeColor=#000000;" vertex="1" parent="1">
          <mxGeometry x="-1482" y="3011.5" width="10" height="10" as="geometry" />
        </mxCell>
        <mxCell id="enEflHNbiE4KMbk-d4w2-415" value="" style="rounded=0;whiteSpace=wrap;html=1;fillColor=#666666;gradientColor=none;gradientDirection=north;strokeColor=#000000;" vertex="1" parent="1">
          <mxGeometry x="-1462" y="2981.5" width="10" height="10" as="geometry" />
        </mxCell>
        <mxCell id="enEflHNbiE4KMbk-d4w2-416" value="" style="rounded=0;whiteSpace=wrap;html=1;fillColor=#CCCCFF;gradientColor=none;gradientDirection=north;strokeColor=#000000;" vertex="1" parent="1">
          <mxGeometry x="-1462" y="2991.5" width="10" height="10" as="geometry" />
        </mxCell>
        <mxCell id="enEflHNbiE4KMbk-d4w2-417" value="" style="rounded=0;whiteSpace=wrap;html=1;fillColor=#f5f5f5;gradientDirection=north;fontColor=#333333;strokeColor=#000000;" vertex="1" parent="1">
          <mxGeometry x="-1462" y="3001.5" width="10" height="10" as="geometry" />
        </mxCell>
        <mxCell id="enEflHNbiE4KMbk-d4w2-418" value="" style="rounded=0;whiteSpace=wrap;html=1;fillColor=#D9D9D9;gradientColor=none;gradientDirection=north;strokeColor=#000000;" vertex="1" parent="1">
          <mxGeometry x="-1462" y="3011.5" width="10" height="10" as="geometry" />
        </mxCell>
        <mxCell id="enEflHNbiE4KMbk-d4w2-419" style="edgeStyle=orthogonalEdgeStyle;rounded=0;orthogonalLoop=1;jettySize=auto;html=1;exitX=0.5;exitY=0;exitDx=0;exitDy=0;dashed=1;" edge="1" parent="1" source="enEflHNbiE4KMbk-d4w2-420">
          <mxGeometry relative="1" as="geometry">
            <mxPoint x="-1444" y="2900" as="targetPoint" />
          </mxGeometry>
        </mxCell>
        <mxCell id="enEflHNbiE4KMbk-d4w2-420" value="concat" style="rounded=1;whiteSpace=wrap;html=1;fillColor=#FFFFFF;gradientColor=none;gradientDirection=north;" vertex="1" parent="1">
          <mxGeometry x="-1486.5" y="2943.5" width="84" height="20" as="geometry" />
        </mxCell>
        <mxCell id="enEflHNbiE4KMbk-d4w2-421" value="" style="shape=curlyBracket;whiteSpace=wrap;html=1;rounded=1;flipH=1;fillColor=#FFFFFF;gradientColor=none;gradientDirection=north;rotation=-90;" vertex="1" parent="1">
          <mxGeometry x="-1454.25" y="2908.25" width="20" height="128.5" as="geometry" />
        </mxCell>
        <mxCell id="enEflHNbiE4KMbk-d4w2-422" value="" style="rounded=0;whiteSpace=wrap;html=1;fillColor=#f5f5f5;gradientDirection=north;strokeColor=#000000;fontColor=#333333;" vertex="1" parent="1">
          <mxGeometry x="-1502" y="2981.5" width="10" height="10" as="geometry" />
        </mxCell>
        <mxCell id="enEflHNbiE4KMbk-d4w2-423" value="" style="rounded=0;whiteSpace=wrap;html=1;fillColor=#D9D9D9;gradientColor=none;gradientDirection=north;strokeColor=#000000;" vertex="1" parent="1">
          <mxGeometry x="-1502" y="2991.5" width="10" height="10" as="geometry" />
        </mxCell>
        <mxCell id="enEflHNbiE4KMbk-d4w2-424" value="" style="rounded=0;whiteSpace=wrap;html=1;fillColor=#4D4D4D;gradientColor=none;gradientDirection=north;strokeColor=#000000;" vertex="1" parent="1">
          <mxGeometry x="-1502" y="3001.5" width="10" height="10" as="geometry" />
        </mxCell>
        <mxCell id="enEflHNbiE4KMbk-d4w2-425" value="" style="rounded=0;whiteSpace=wrap;html=1;fillColor=#D9D9D9;gradientColor=none;gradientDirection=north;strokeColor=#000000;" vertex="1" parent="1">
          <mxGeometry x="-1502" y="3011.5" width="10" height="10" as="geometry" />
        </mxCell>
        <mxCell id="enEflHNbiE4KMbk-d4w2-426" value="" style="ellipse;whiteSpace=wrap;html=1;aspect=fixed;" vertex="1" parent="1">
          <mxGeometry x="-1504" y="3034.5" width="14" height="14" as="geometry" />
        </mxCell>
        <mxCell id="enEflHNbiE4KMbk-d4w2-427" value="" style="ellipse;whiteSpace=wrap;html=1;aspect=fixed;" vertex="1" parent="1">
          <mxGeometry x="-1484" y="3034.5" width="14" height="14" as="geometry" />
        </mxCell>
        <mxCell id="enEflHNbiE4KMbk-d4w2-428" style="edgeStyle=orthogonalEdgeStyle;rounded=0;orthogonalLoop=1;jettySize=auto;html=1;exitX=0.5;exitY=0;exitDx=0;exitDy=0;entryX=0.5;entryY=1;entryDx=0;entryDy=0;endSize=3;strokeColor=#000000;" edge="1" parent="1" source="enEflHNbiE4KMbk-d4w2-429" target="enEflHNbiE4KMbk-d4w2-418">
          <mxGeometry relative="1" as="geometry" />
        </mxCell>
        <mxCell id="enEflHNbiE4KMbk-d4w2-429" value="" style="ellipse;whiteSpace=wrap;html=1;aspect=fixed;" vertex="1" parent="1">
          <mxGeometry x="-1464" y="3034.5" width="14" height="14" as="geometry" />
        </mxCell>
        <mxCell id="enEflHNbiE4KMbk-d4w2-430" style="edgeStyle=orthogonalEdgeStyle;rounded=0;orthogonalLoop=1;jettySize=auto;html=1;exitX=0.5;exitY=0;exitDx=0;exitDy=0;entryX=0.5;entryY=1;entryDx=0;entryDy=0;endSize=3;strokeColor=#000000;" edge="1" parent="1">
          <mxGeometry relative="1" as="geometry">
            <mxPoint x="-1477" y="3034.5" as="sourcePoint" />
            <mxPoint x="-1477" y="3021.5" as="targetPoint" />
          </mxGeometry>
        </mxCell>
        <mxCell id="enEflHNbiE4KMbk-d4w2-431" style="edgeStyle=orthogonalEdgeStyle;rounded=0;orthogonalLoop=1;jettySize=auto;html=1;exitX=0.5;exitY=0;exitDx=0;exitDy=0;entryX=0.5;entryY=1;entryDx=0;entryDy=0;endSize=3;strokeColor=#000000;" edge="1" parent="1">
          <mxGeometry relative="1" as="geometry">
            <mxPoint x="-1497" y="3034.5" as="sourcePoint" />
            <mxPoint x="-1497" y="3021.5" as="targetPoint" />
          </mxGeometry>
        </mxCell>
        <mxCell id="enEflHNbiE4KMbk-d4w2-432" value="User Features" style="text;html=1;strokeColor=none;fillColor=none;align=center;verticalAlign=middle;whiteSpace=wrap;rounded=0;fontSize=9;" vertex="1" parent="1">
          <mxGeometry x="-1493.5" y="3051.5" width="115" height="30" as="geometry" />
        </mxCell>
        <mxCell id="enEflHNbiE4KMbk-d4w2-433" value="" style="rounded=0;whiteSpace=wrap;html=1;fillColor=#dae8fc;gradientDirection=north;strokeColor=#000000;" vertex="1" parent="1">
          <mxGeometry x="-1418" y="2981.5" width="10" height="10" as="geometry" />
        </mxCell>
        <mxCell id="enEflHNbiE4KMbk-d4w2-434" value="" style="rounded=0;whiteSpace=wrap;html=1;fillColor=#f5f5f5;gradientDirection=north;strokeColor=#000000;fontColor=#333333;" vertex="1" parent="1">
          <mxGeometry x="-1418" y="2991.5" width="10" height="10" as="geometry" />
        </mxCell>
        <mxCell id="enEflHNbiE4KMbk-d4w2-435" value="" style="rounded=0;whiteSpace=wrap;html=1;fillColor=#fff2cc;gradientDirection=north;strokeColor=#000000;" vertex="1" parent="1">
          <mxGeometry x="-1418" y="3001.5" width="10" height="10" as="geometry" />
        </mxCell>
        <mxCell id="enEflHNbiE4KMbk-d4w2-436" value="" style="rounded=0;whiteSpace=wrap;html=1;fillColor=#D9D9D9;gradientColor=none;gradientDirection=north;strokeColor=#000000;" vertex="1" parent="1">
          <mxGeometry x="-1418" y="3011.5" width="10" height="10" as="geometry" />
        </mxCell>
        <mxCell id="enEflHNbiE4KMbk-d4w2-437" value="" style="rounded=0;whiteSpace=wrap;html=1;fillColor=#666666;gradientColor=none;gradientDirection=north;strokeColor=#000000;" vertex="1" parent="1">
          <mxGeometry x="-1398" y="2981.5" width="10" height="10" as="geometry" />
        </mxCell>
        <mxCell id="enEflHNbiE4KMbk-d4w2-438" value="" style="rounded=0;whiteSpace=wrap;html=1;fillColor=#CCCCFF;gradientColor=none;gradientDirection=north;strokeColor=#000000;" vertex="1" parent="1">
          <mxGeometry x="-1398" y="2991.5" width="10" height="10" as="geometry" />
        </mxCell>
        <mxCell id="enEflHNbiE4KMbk-d4w2-439" value="" style="rounded=0;whiteSpace=wrap;html=1;fillColor=#f5f5f5;gradientDirection=north;fontColor=#333333;strokeColor=#000000;" vertex="1" parent="1">
          <mxGeometry x="-1398" y="3001.5" width="10" height="10" as="geometry" />
        </mxCell>
        <mxCell id="enEflHNbiE4KMbk-d4w2-440" value="" style="rounded=0;whiteSpace=wrap;html=1;fillColor=#D9D9D9;gradientColor=none;gradientDirection=north;strokeColor=#000000;" vertex="1" parent="1">
          <mxGeometry x="-1398" y="3011.5" width="10" height="10" as="geometry" />
        </mxCell>
        <mxCell id="enEflHNbiE4KMbk-d4w2-441" value="" style="rounded=0;whiteSpace=wrap;html=1;fillColor=#f5f5f5;gradientDirection=north;strokeColor=#000000;fontColor=#333333;" vertex="1" parent="1">
          <mxGeometry x="-1438" y="2981.5" width="10" height="10" as="geometry" />
        </mxCell>
        <mxCell id="enEflHNbiE4KMbk-d4w2-442" value="" style="rounded=0;whiteSpace=wrap;html=1;fillColor=#D9D9D9;gradientColor=none;gradientDirection=north;strokeColor=#000000;" vertex="1" parent="1">
          <mxGeometry x="-1438" y="2991.5" width="10" height="10" as="geometry" />
        </mxCell>
        <mxCell id="enEflHNbiE4KMbk-d4w2-443" value="" style="rounded=0;whiteSpace=wrap;html=1;fillColor=#4D4D4D;gradientColor=none;gradientDirection=north;strokeColor=#000000;" vertex="1" parent="1">
          <mxGeometry x="-1438" y="3001.5" width="10" height="10" as="geometry" />
        </mxCell>
        <mxCell id="enEflHNbiE4KMbk-d4w2-444" value="" style="rounded=0;whiteSpace=wrap;html=1;fillColor=#D9D9D9;gradientColor=none;gradientDirection=north;strokeColor=#000000;" vertex="1" parent="1">
          <mxGeometry x="-1438" y="3011.5" width="10" height="10" as="geometry" />
        </mxCell>
        <mxCell id="enEflHNbiE4KMbk-d4w2-445" value="" style="ellipse;whiteSpace=wrap;html=1;aspect=fixed;" vertex="1" parent="1">
          <mxGeometry x="-1440" y="3034.5" width="14" height="14" as="geometry" />
        </mxCell>
        <mxCell id="enEflHNbiE4KMbk-d4w2-446" value="" style="ellipse;whiteSpace=wrap;html=1;aspect=fixed;" vertex="1" parent="1">
          <mxGeometry x="-1420" y="3034.5" width="14" height="14" as="geometry" />
        </mxCell>
        <mxCell id="enEflHNbiE4KMbk-d4w2-447" style="edgeStyle=orthogonalEdgeStyle;rounded=0;orthogonalLoop=1;jettySize=auto;html=1;exitX=0.5;exitY=0;exitDx=0;exitDy=0;entryX=0.5;entryY=1;entryDx=0;entryDy=0;endSize=3;strokeColor=#000000;" edge="1" parent="1" source="enEflHNbiE4KMbk-d4w2-448" target="enEflHNbiE4KMbk-d4w2-440">
          <mxGeometry relative="1" as="geometry" />
        </mxCell>
        <mxCell id="enEflHNbiE4KMbk-d4w2-448" value="" style="ellipse;whiteSpace=wrap;html=1;aspect=fixed;" vertex="1" parent="1">
          <mxGeometry x="-1400" y="3034.5" width="14" height="14" as="geometry" />
        </mxCell>
        <mxCell id="enEflHNbiE4KMbk-d4w2-449" style="edgeStyle=orthogonalEdgeStyle;rounded=0;orthogonalLoop=1;jettySize=auto;html=1;exitX=0.5;exitY=0;exitDx=0;exitDy=0;entryX=0.5;entryY=1;entryDx=0;entryDy=0;endSize=3;strokeColor=#000000;" edge="1" parent="1">
          <mxGeometry relative="1" as="geometry">
            <mxPoint x="-1413" y="3034.5" as="sourcePoint" />
            <mxPoint x="-1413" y="3021.5" as="targetPoint" />
          </mxGeometry>
        </mxCell>
        <mxCell id="enEflHNbiE4KMbk-d4w2-450" style="edgeStyle=orthogonalEdgeStyle;rounded=0;orthogonalLoop=1;jettySize=auto;html=1;exitX=0.5;exitY=0;exitDx=0;exitDy=0;entryX=0.5;entryY=1;entryDx=0;entryDy=0;endSize=3;strokeColor=#000000;" edge="1" parent="1">
          <mxGeometry relative="1" as="geometry">
            <mxPoint x="-1433" y="3034.5" as="sourcePoint" />
            <mxPoint x="-1433" y="3021.5" as="targetPoint" />
          </mxGeometry>
        </mxCell>
        <mxCell id="enEflHNbiE4KMbk-d4w2-458" value="&lt;font style=&quot;font-size: 11px;&quot;&gt;Predict&lt;/font&gt;" style="rounded=1;whiteSpace=wrap;html=1;labelBorderColor=none;strokeColor=#d6b656;fontSize=12;fillColor=#fff2cc;" vertex="1" parent="1">
          <mxGeometry x="-1419" y="2575" width="80" height="20" as="geometry" />
        </mxCell>
        <mxCell id="enEflHNbiE4KMbk-d4w2-462" style="edgeStyle=orthogonalEdgeStyle;rounded=0;orthogonalLoop=1;jettySize=auto;html=1;exitX=0.5;exitY=0;exitDx=0;exitDy=0;entryX=0.435;entryY=1.055;entryDx=0;entryDy=0;entryPerimeter=0;dashed=1;" edge="1" parent="1">
          <mxGeometry relative="1" as="geometry">
            <mxPoint x="-1098" y="2700" as="sourcePoint" />
            <mxPoint x="-1097.725" y="2683.1" as="targetPoint" />
            <Array as="points">
              <mxPoint x="-1098" y="2696" />
              <mxPoint x="-1098" y="2696" />
            </Array>
          </mxGeometry>
        </mxCell>
        <mxCell id="enEflHNbiE4KMbk-d4w2-463" value="" style="rounded=0;whiteSpace=wrap;html=1;fillColor=#fff2cc;gradientDirection=north;strokeColor=#1A1A1A;" vertex="1" parent="1">
          <mxGeometry x="-1429" y="2725" width="10" height="10" as="geometry" />
        </mxCell>
        <mxCell id="enEflHNbiE4KMbk-d4w2-464" value="" style="rounded=0;whiteSpace=wrap;html=1;fillColor=#fff2cc;gradientDirection=north;strokeColor=#1A1A1A;" vertex="1" parent="1">
          <mxGeometry x="-1419" y="2725" width="10" height="10" as="geometry" />
        </mxCell>
        <mxCell id="enEflHNbiE4KMbk-d4w2-465" value="" style="rounded=0;whiteSpace=wrap;html=1;fillColor=#fff2cc;gradientDirection=north;strokeColor=#1A1A1A;" vertex="1" parent="1">
          <mxGeometry x="-1399" y="2725" width="10" height="10" as="geometry" />
        </mxCell>
        <mxCell id="enEflHNbiE4KMbk-d4w2-466" value="" style="rounded=0;whiteSpace=wrap;html=1;fillColor=#f5f5f5;gradientDirection=north;fontColor=#333333;strokeColor=#1A1A1A;" vertex="1" parent="1">
          <mxGeometry x="-1389" y="2725" width="10" height="10" as="geometry" />
        </mxCell>
        <mxCell id="enEflHNbiE4KMbk-d4w2-467" value="" style="rounded=0;whiteSpace=wrap;html=1;fillColor=#fff2cc;gradientDirection=north;strokeColor=#1A1A1A;" vertex="1" parent="1">
          <mxGeometry x="-1409" y="2725" width="10" height="10" as="geometry" />
        </mxCell>
        <mxCell id="enEflHNbiE4KMbk-d4w2-468" value="" style="rounded=0;whiteSpace=wrap;html=1;fillColor=#fff2cc;gradientDirection=north;strokeColor=#1A1A1A;" vertex="1" parent="1">
          <mxGeometry x="-1439" y="2725" width="10" height="10" as="geometry" />
        </mxCell>
        <mxCell id="enEflHNbiE4KMbk-d4w2-469" value="" style="rounded=0;whiteSpace=wrap;html=1;fillColor=#f5f5f5;gradientDirection=north;fontColor=#333333;strokeColor=#1A1A1A;" vertex="1" parent="1">
          <mxGeometry x="-1429" y="2725" width="10" height="10" as="geometry" />
        </mxCell>
        <mxCell id="enEflHNbiE4KMbk-d4w2-470" value="" style="rounded=0;whiteSpace=wrap;html=1;fillColor=#f5f5f5;gradientDirection=north;fontColor=#333333;strokeColor=#1A1A1A;" vertex="1" parent="1">
          <mxGeometry x="-1419" y="2725" width="10" height="10" as="geometry" />
        </mxCell>
        <mxCell id="enEflHNbiE4KMbk-d4w2-471" value="" style="rounded=0;whiteSpace=wrap;html=1;fillColor=#fff2cc;gradientDirection=north;strokeColor=#1A1A1A;" vertex="1" parent="1">
          <mxGeometry x="-1369" y="2725" width="10" height="10" as="geometry" />
        </mxCell>
        <mxCell id="enEflHNbiE4KMbk-d4w2-472" value="" style="rounded=0;whiteSpace=wrap;html=1;fillColor=#fff2cc;gradientDirection=north;strokeColor=#1A1A1A;" vertex="1" parent="1">
          <mxGeometry x="-1359" y="2725" width="10" height="10" as="geometry" />
        </mxCell>
        <mxCell id="enEflHNbiE4KMbk-d4w2-473" value="" style="rounded=0;whiteSpace=wrap;html=1;fillColor=#fff2cc;gradientDirection=north;strokeColor=#1A1A1A;" vertex="1" parent="1">
          <mxGeometry x="-1339" y="2725" width="10" height="10" as="geometry" />
        </mxCell>
        <mxCell id="enEflHNbiE4KMbk-d4w2-498" style="edgeStyle=orthogonalEdgeStyle;rounded=0;orthogonalLoop=1;jettySize=auto;html=1;exitX=1;exitY=0.5;exitDx=0;exitDy=0;entryX=0;entryY=0.5;entryDx=0;entryDy=0;dashed=1;" edge="1" parent="1" source="enEflHNbiE4KMbk-d4w2-474" target="enEflHNbiE4KMbk-d4w2-491">
          <mxGeometry relative="1" as="geometry" />
        </mxCell>
        <mxCell id="enEflHNbiE4KMbk-d4w2-474" value="" style="rounded=0;whiteSpace=wrap;html=1;fillColor=#f5f5f5;gradientDirection=north;fontColor=#333333;strokeColor=#1A1A1A;" vertex="1" parent="1">
          <mxGeometry x="-1329" y="2725" width="10" height="10" as="geometry" />
        </mxCell>
        <mxCell id="enEflHNbiE4KMbk-d4w2-475" value="" style="rounded=0;whiteSpace=wrap;html=1;fillColor=#fff2cc;gradientDirection=north;strokeColor=#1A1A1A;" vertex="1" parent="1">
          <mxGeometry x="-1349" y="2725" width="10" height="10" as="geometry" />
        </mxCell>
        <mxCell id="enEflHNbiE4KMbk-d4w2-476" value="" style="rounded=0;whiteSpace=wrap;html=1;fillColor=#fff2cc;gradientDirection=north;strokeColor=#1A1A1A;" vertex="1" parent="1">
          <mxGeometry x="-1379" y="2725" width="10" height="10" as="geometry" />
        </mxCell>
        <mxCell id="enEflHNbiE4KMbk-d4w2-477" value="" style="rounded=0;whiteSpace=wrap;html=1;fillColor=#f5f5f5;gradientDirection=north;fontColor=#333333;strokeColor=#1A1A1A;" vertex="1" parent="1">
          <mxGeometry x="-1369" y="2725" width="10" height="10" as="geometry" />
        </mxCell>
        <mxCell id="enEflHNbiE4KMbk-d4w2-478" value="" style="rounded=0;whiteSpace=wrap;html=1;fillColor=#f5f5f5;gradientDirection=north;fontColor=#333333;strokeColor=#1A1A1A;" vertex="1" parent="1">
          <mxGeometry x="-1359" y="2725" width="10" height="10" as="geometry" />
        </mxCell>
        <mxCell id="enEflHNbiE4KMbk-d4w2-481" style="edgeStyle=orthogonalEdgeStyle;rounded=0;orthogonalLoop=1;jettySize=auto;html=1;exitX=0.5;exitY=0;exitDx=0;exitDy=0;entryX=0.435;entryY=1.055;entryDx=0;entryDy=0;entryPerimeter=0;dashed=1;" edge="1" parent="1">
          <mxGeometry relative="1" as="geometry">
            <mxPoint x="-1380" y="2725" as="sourcePoint" />
            <mxPoint x="-1379.725" y="2708.1" as="targetPoint" />
          </mxGeometry>
        </mxCell>
        <mxCell id="enEflHNbiE4KMbk-d4w2-482" value="" style="rounded=0;whiteSpace=wrap;html=1;fillColor=#fff2cc;gradientDirection=north;strokeColor=#1A1A1A;" vertex="1" parent="1">
          <mxGeometry x="-1149" y="2675" width="10" height="10" as="geometry" />
        </mxCell>
        <mxCell id="enEflHNbiE4KMbk-d4w2-483" value="" style="rounded=0;whiteSpace=wrap;html=1;fillColor=#fff2cc;gradientDirection=north;strokeColor=#1A1A1A;" vertex="1" parent="1">
          <mxGeometry x="-1139" y="2675" width="10" height="10" as="geometry" />
        </mxCell>
        <mxCell id="enEflHNbiE4KMbk-d4w2-484" value="" style="rounded=0;whiteSpace=wrap;html=1;fillColor=#fff2cc;gradientDirection=north;strokeColor=#1A1A1A;" vertex="1" parent="1">
          <mxGeometry x="-1119" y="2675" width="10" height="10" as="geometry" />
        </mxCell>
        <mxCell id="enEflHNbiE4KMbk-d4w2-485" value="" style="rounded=0;whiteSpace=wrap;html=1;fillColor=#f5f5f5;gradientDirection=north;fontColor=#333333;strokeColor=#1A1A1A;" vertex="1" parent="1">
          <mxGeometry x="-1109" y="2675" width="10" height="10" as="geometry" />
        </mxCell>
        <mxCell id="enEflHNbiE4KMbk-d4w2-486" value="" style="rounded=0;whiteSpace=wrap;html=1;fillColor=#f5f5f5;gradientDirection=north;fontColor=#333333;strokeColor=#1A1A1A;" vertex="1" parent="1">
          <mxGeometry x="-1099" y="2675" width="10" height="10" as="geometry" />
        </mxCell>
        <mxCell id="enEflHNbiE4KMbk-d4w2-487" value="" style="rounded=0;whiteSpace=wrap;html=1;fillColor=#fff2cc;gradientDirection=north;strokeColor=#1A1A1A;" vertex="1" parent="1">
          <mxGeometry x="-1129" y="2675" width="10" height="10" as="geometry" />
        </mxCell>
        <mxCell id="enEflHNbiE4KMbk-d4w2-488" value="" style="rounded=0;whiteSpace=wrap;html=1;fillColor=#fff2cc;gradientDirection=north;strokeColor=#1A1A1A;" vertex="1" parent="1">
          <mxGeometry x="-1099" y="2675" width="10" height="10" as="geometry" />
        </mxCell>
        <mxCell id="enEflHNbiE4KMbk-d4w2-489" value="" style="rounded=0;whiteSpace=wrap;html=1;fillColor=#f5f5f5;gradientDirection=north;fontColor=#333333;strokeColor=#1A1A1A;" vertex="1" parent="1">
          <mxGeometry x="-1089" y="2675" width="10" height="10" as="geometry" />
        </mxCell>
        <mxCell id="enEflHNbiE4KMbk-d4w2-490" value="" style="rounded=0;whiteSpace=wrap;html=1;fillColor=#f5f5f5;gradientDirection=north;fontColor=#333333;strokeColor=#1A1A1A;" vertex="1" parent="1">
          <mxGeometry x="-1079" y="2675" width="10" height="10" as="geometry" />
        </mxCell>
        <mxCell id="enEflHNbiE4KMbk-d4w2-491" value="" style="rounded=0;whiteSpace=wrap;html=1;fillColor=#fff2cc;gradientDirection=north;strokeColor=#1A1A1A;" vertex="1" parent="1">
          <mxGeometry x="-1159" y="2675" width="10" height="10" as="geometry" />
        </mxCell>
        <mxCell id="enEflHNbiE4KMbk-d4w2-492" value="" style="rounded=0;whiteSpace=wrap;html=1;fillColor=#f5f5f5;gradientDirection=north;fontColor=#333333;strokeColor=#1A1A1A;" vertex="1" parent="1">
          <mxGeometry x="-1149" y="2675" width="10" height="10" as="geometry" />
        </mxCell>
        <mxCell id="enEflHNbiE4KMbk-d4w2-493" value="" style="rounded=0;whiteSpace=wrap;html=1;fillColor=#f5f5f5;gradientDirection=north;fontColor=#333333;strokeColor=#1A1A1A;" vertex="1" parent="1">
          <mxGeometry x="-1139" y="2675" width="10" height="10" as="geometry" />
        </mxCell>
        <mxCell id="enEflHNbiE4KMbk-d4w2-494" value="" style="rounded=0;whiteSpace=wrap;html=1;fillColor=#f8cecc;gradientDirection=north;strokeColor=#000000;" vertex="1" parent="1">
          <mxGeometry x="-1058" y="2675" width="10" height="10" as="geometry" />
        </mxCell>
        <mxCell id="enEflHNbiE4KMbk-d4w2-495" value="" style="rounded=0;whiteSpace=wrap;html=1;fillColor=#f8cecc;gradientDirection=north;strokeColor=#000000;" vertex="1" parent="1">
          <mxGeometry x="-1068" y="2675" width="10" height="10" as="geometry" />
        </mxCell>
        <mxCell id="enEflHNbiE4KMbk-d4w2-496" style="edgeStyle=orthogonalEdgeStyle;rounded=0;orthogonalLoop=1;jettySize=auto;html=1;exitX=0.5;exitY=0;exitDx=0;exitDy=0;entryX=0.435;entryY=1.055;entryDx=0;entryDy=0;entryPerimeter=0;dashed=1;" edge="1" parent="1">
          <mxGeometry relative="1" as="geometry">
            <mxPoint x="-1098" y="2670" as="sourcePoint" />
            <mxPoint x="-1097.725" y="2653.1" as="targetPoint" />
            <Array as="points">
              <mxPoint x="-1098" y="2666" />
              <mxPoint x="-1098" y="2666" />
            </Array>
          </mxGeometry>
        </mxCell>
      </root>
    </mxGraphModel>
  </diagram>
</mxfile>
